<svg width="300" height="52" viewBox="0 0 300 52" xmlns="http://www.w3.org/2000/svg" xmlns:xlink="http://www.w3.org/1999/xlink">
    <defs>
        <path id="ofzwg7au9a" d="M0 0h300v51.753H0z"/>
    </defs>
    <g fill="none" fill-rule="evenodd">
        <mask id="9mhhv5sgpb" fill="#fff">
            <use xlink:href="#ofzwg7au9a"/>
        </mask>
        <path d="M293.835 35.949H300v1.138h-4.807v3.108h3.957v1.138h-3.957v3.668H300v1.138h-6.165v-10.19zm-8.472 1.138h-3.618v-1.138h8.594v1.138h-3.617v9.052h-1.359v-9.052zm-8.133 5.095-1.783-4.195-1.784 4.195h3.567zm-2.192-6.233h.885l4.38 10.19h-1.391l-1.224-2.853h-4.482l-1.224 2.853h-1.324l4.38-10.19zm-11.567 4.841c1.529 0 1.988-.917 1.988-1.852 0-.934-.459-1.851-1.988-1.851h-2.003v3.703h2.003zm-3.361-4.841h3.361c2.328 0 3.329 1.341 3.329 2.989 0 1.324-.645 2.446-2.106 2.836l3.092 4.365h-1.58l-2.921-4.212h-1.817v4.212h-1.358v-10.19zm-5.367 5.094c0-2.479-1.664-4.246-3.991-4.246-2.343 0-4.008 1.767-4.008 4.246 0 2.464 1.665 4.246 4.008 4.246 2.327 0 3.991-1.782 3.991-4.246zm-9.409 0c0-3.124 2.294-5.383 5.418-5.383 3.108 0 5.401 2.259 5.401 5.383 0 3.126-2.293 5.384-5.401 5.384-3.124 0-5.418-2.258-5.418-5.384zm-6.827-3.956h-3.618v-1.138h8.594v1.138h-3.617v9.052h-1.359v-9.052zm-15.248 3.956c0-3.294 2.48-5.315 5.418-5.315 1.291 0 2.684.424 3.532 1.069v1.41c-.831-.746-1.953-1.341-3.532-1.341-2.343 0-4.008 1.631-4.008 4.177 0 2.531 1.665 4.179 4.008 4.179 1.579 0 2.701-.595 3.532-1.341v1.408c-.848.646-2.241 1.071-3.532 1.071-2.938 0-5.418-2.021-5.418-5.317zm-9.411-5.094h6.165v1.138h-4.807v3.108h3.957v1.138h-3.957v3.668h4.807v1.138h-6.165v-10.19zm-8.388 4.841c1.529 0 1.987-.917 1.987-1.852 0-.934-.458-1.851-1.987-1.851h-2.003v3.703h2.003zm-3.362-4.841h3.362c2.327 0 3.33 1.341 3.33 2.989 0 1.324-.646 2.446-2.106 2.836l3.091 4.365h-1.58l-2.921-4.212h-1.817v4.212h-1.359v-10.19zm-7.003 10.19h1.358v-10.19h-1.358v10.19zM185.01 44.95c3.311 0 4.246-1.868 4.246-3.907 0-2.037-.935-3.905-4.246-3.905h-1.817v7.812h1.817zm-3.177-9.001h3.159c3.958 0 5.672 2.293 5.672 5.094 0 2.803-1.714 5.096-5.672 5.096h-3.159v-10.19zm64.056-5.978.305-1.256c.61.662 1.631 1.393 3.091 1.393 1.205 0 2.139-.681 2.139-1.784 0-1.036-.508-1.613-2.411-2.124-1.919-.508-2.836-1.544-2.836-2.972 0-1.443 1.188-2.648 3.277-2.648 1.172 0 2.208.476 2.768.933l-.305 1.071c-.679-.493-1.63-.9-2.463-.9-1.273 0-2.003.594-2.003 1.544 0 .731.458 1.343 2.054 1.767 2.192.578 3.193 1.529 3.193 3.21 0 1.988-1.665 3.007-3.413 3.007-1.665 0-2.836-.662-3.396-1.241zm-9.189-9.17h1.359v9.052h4.806v1.138H236.7v-10.19zm-6.676 6.232-1.783-4.194-1.784 4.194h3.567zm-2.191-6.232h.883l4.382 10.19h-1.392l-1.223-2.853h-4.484l-1.223 2.853h-1.325l4.382-10.19zm-15.853 0h.781l6.063 7.592v-7.592h1.239v10.19h-.781l-6.063-7.592v7.592h-1.239v-10.19zm-13.94 5.094c0-3.294 2.479-5.315 5.418-5.315 1.291 0 2.682.424 3.532 1.069v1.41c-.832-.746-1.953-1.341-3.532-1.341-2.344 0-4.008 1.631-4.008 4.177 0 2.531 1.664 4.246 4.008 4.246 1.002 0 1.919-.203 2.598-.593v-2.31h-2.089V26.1h3.449v4.11c-.562.236-2.074 1.069-3.958 1.069-2.939 0-5.418-2.088-5.418-5.384zm-5.347 5.096h1.358v-10.19h-1.358v10.19zm-11.153-1.02.306-1.256c.612.662 1.63 1.393 3.091 1.393 1.205 0 2.139-.681 2.139-1.784 0-1.036-.509-1.613-2.412-2.124-1.918-.508-2.836-1.544-2.836-2.972 0-1.443 1.19-2.648 3.279-2.648 1.171 0 2.208.476 2.767.933l-.305 1.071c-.679-.493-1.631-.9-2.462-.9-1.274 0-2.005.594-2.005 1.544 0 .731.459 1.343 2.055 1.767 2.191.578 3.193 1.529 3.193 3.21 0 1.988-1.664 3.007-3.413 3.007-1.664 0-2.836-.662-3.397-1.241zm99.159-24.318h.782l6.063 7.592V5.653h1.24v10.19h-.783l-6.063-7.591v7.591h-1.239V5.653zm-6.675 6.233-1.784-4.194-1.783 4.194h3.567zm-2.191-6.233h.883l4.382 10.19h-1.393l-1.223-2.853h-4.483l-1.224 2.853h-1.324l4.382-10.19zm-9.316 10.19h1.358V5.653h-1.358v10.19zm-9.782-10.19h1.359v9.052h4.806v1.138h-6.165V5.653zm-6.676 6.233-1.782-4.194-1.785 4.194h3.567zm-2.191-6.233h.883l4.382 10.19h-1.391l-1.224-2.853h-4.484l-1.222 2.853h-1.326l4.382-10.19zm-11.749 4.84c1.529 0 1.988-.917 1.988-1.851 0-.933-.459-1.851-1.988-1.851h-2.003v3.702h2.003zm-3.362-4.84h3.362c2.327 0 3.329 1.343 3.329 2.989 0 1.326-.645 2.446-2.105 2.837l3.091 4.364h-1.581l-2.92-4.212h-1.817v4.212h-1.359V5.653zm-8.424 1.138h-3.617V5.653h8.594v1.138h-3.619v9.052h-1.358V6.791zm-13.413 8.033.305-1.257c.612.662 1.631 1.393 3.091 1.393 1.205 0 2.14-.679 2.14-1.783 0-1.036-.509-1.613-2.412-2.123-1.919-.509-2.836-1.545-2.836-2.972 0-1.443 1.189-2.65 3.277-2.65 1.172 0 2.209.476 2.769.934l-.305 1.071c-.68-.493-1.631-.901-2.464-.901-1.274 0-2.003.594-2.003 1.546 0 .731.458 1.341 2.055 1.767 2.191.577 3.193 1.527 3.193 3.209 0 1.987-1.666 3.005-3.414 3.005-1.664 0-2.836-.662-3.396-1.239zm-12.744-3.686V5.653h1.393v5.502c0 2.633 1.19 3.788 3.057 3.788 1.869 0 3.058-1.155 3.058-3.788V5.653h1.324v5.485c0 3.448-1.783 4.994-4.415 4.994s-4.417-1.546-4.417-4.994zm-6.064.748-1.783-4.194-1.784 4.194h3.567zm-2.191-6.233h.884l4.381 10.19h-1.392l-1.223-2.853h-4.483l-1.224 2.853h-1.324l4.381-10.19zm-71.824 45.106h9.78v-9.78h-9.78v9.78zm43.639-24.882c0 7.142-2.302 13.22-6.657 17.575-4.849 4.848-11.856 7.307-20.828 7.307h-3.292v-9.186h3.368c11.593 0 17.229-5.134 17.229-15.696s-5.636-15.696-17.229-15.696h-6.45v27.717h-9.78V.996h16.154c8.972 0 15.979 2.459 20.828 7.306 4.355 4.355 6.657 10.433 6.657 17.575zM45.091 40.979l4.206 9.78H38.852l-4.191-9.78h10.43zM19.349 29.094l5.146-12.109 5.147 12.109H19.349zM27.898.996h-6.5L0 50.759h10.138l5.513-12.863 28.116.002L27.898.996zM92.141 14.1l2.474-8.661-.973-.795c-1.795-1.469-4.577-2.999-7.94-3.885l-1.896 8.69a21.15 21.15 0 0 1 6.124 3.048l2.211 1.603zm4.346 22.19c0 4.779-1.889 8.801-5.463 11.633-3.115 2.471-7.321 3.83-11.839 3.83-9.926 0-15.28-4.721-16.684-6.169l-.737-.758 2.472-10.16 2.42 2.623c2.385 2.584 6.495 5.663 12.529 5.663 3.849 0 7.734-1.894 7.734-6.126 0-3.039-.678-5.372-9.454-7.724-11.739-3.115-14.203-10.011-14.203-15.245C63.262 7.183 68.485 0 79.952 0c.933 0 1.84.066 2.724.176l-1.892 8.675c-.282-.023-.566-.049-.832-.049-2.661 0-7.122.657-7.122 5.055 0 1.308 0 4.028 7.842 6.114 10.937 2.882 15.815 7.916 15.815 16.319z" fill="#FFF" mask="url(#9mhhv5sgpb)"/>
    </g>
</svg>
