<svg width="337" height="72" viewBox="0 0 337 72" xmlns="http://www.w3.org/2000/svg" xmlns:xlink="http://www.w3.org/1999/xlink">
    <defs>
        <path id="rizirf68ga" d="M0 72h336.249V0H0z"/>
    </defs>
    <g fill="none" fill-rule="evenodd">
        <path d="M33.108 57.703a.607.607 0 0 1-.254.25M35.408 39.72c.265 0 .48-.216.48-.483a.482.482 0 0 0-.48-.485.482.482 0 0 0-.48.485c0 .267.215.484.48.484" fill="#FFF"/>
        <mask id="o9igxs50ob" fill="#fff">
            <use xlink:href="#rizirf68ga"/>
        </mask>
        <path d="M51.931 29.165h5.27v-9.29h-5.27v9.29zm5.27 4.414c-.092 1.003-.432 1.836-1.125 2.307l-4.147 2.476V29.64h5.272v3.939zm-10.61-4.414h4.868v-9.29h-4.868v9.29zm4.868 9.48-1.915 1.144h-.034a.82.82 0 0 1-.504.178.81.81 0 0 1-.512-.185l-1.903-1.138V29.64h4.868v9.004zm-6.838-9.48h1.5v-3.401h-1.5v3.401zm1.5 9.197-4.148-2.476c-.692-.47-1.032-1.304-1.123-2.307v-3.94h5.27v8.723zm-5.272-14.903h1.82v-3.585h-1.82v3.585zm2.274-2.239.212-.223-.131-.243.28.028.168-.295.164.292.285-.025-.132.243.213.223-.273.052v.304l-.257-.193-.257.193v-.304l-.272-.052zm1.29 3.744c-.015-.09-.132-.114-.184-.114-.162 0-.228.269-.363.275-.102.006-.172.014-.172-.108 0-.09.208-.16.286-.24-1.123 0-1.145.515-1.32.515-.295 0 .245-.541.402-.699-.227-.036-.36-.318-.608-.457.117-.17.183-.097.33.02 0-.117.088-.256.35-.256.502 0 .361.487.443.487.08 0-.006-.487.331-.487.498 0 1.12 1.283.555 1.283-.242 0-.046-.183-.05-.22zm-1.21 2.736.281.03.168-.296.164.29.285-.024-.132.243.213.223-.273.051v.304l-.257-.193-.257.193v-.304l-.272-.05.212-.224-.131-.243zM41.15 24.24l.279.029.17-.295.165.292.281-.026-.131.244.214.222-.272.051v.306l-.257-.193-.259.193v-.306l-.27-.05.212-.223-.132-.244zm-.3 4.924h1.82v-3.401h-1.82v3.401zm4.18-4.458.215-.222-.134-.244.282.029.167-.295.165.292.284-.026-.131.244.211.222-.27.051v.306l-.26-.193-.255.193v-.306l-.273-.05zm-.409-1.248h1.5v-3.585h-1.5v3.585zm13.067-4.05v-.01H40.362v.01h-.002l.013 13.993c0 1.35.572 2.53 1.36 2.893l6.665 3.98a.806.806 0 0 0 1.149.063l6.769-4.043c.788-.362 1.36-1.543 1.36-2.893l.013-13.992h-.001z" fill="#FFF" mask="url(#o9igxs50ob)"/>
        <path d="M45.84 32.846c-.026-.056-.66.21-.48.192.018-.186.369-.568.528-.71-.029-.221-.313-.02-.609.133.987-1.412.354-.833-.197-.732.88-.95.649-.934 0-.638.509-.404.618-.886.54-1.026-.478.638-.918.538-.918 1.129 0 .39-.142 1.03-.34 1.245-.26.28-.062-1.042-.738-1.042-.215 0-.726-.019-.88.245.138 0 .344.352.344.492s.128.524-.103.524c-.232 0-.5-.487-.5-.718 0-.235-.016-.18-.016-.513 0-.561-.91-1.348-1.283-1.348 0 .39.51.483.51.98-.215 0-.524-.403-.524-.154 0 .25.325.295.325.512 0 .22-.372-.076-.372.158 0 .206.203.168.253.37-.151-.043-.287-.024-.314.054-.023.067.046.154.158.218-.051.047-.097.164-.097.492 0 1.106.693 1.618 1.202 1.618.362 0 .305-.253.35-.375.015.189.194-.09.194.236 0 .34-.353.192-.353.488 0 .393.556-.015.556.422 0 .528-.066.52-.066.72 0 .14.582-.195.545-.254.14.051.134.463.392.454.168-.009.204-.423.336-.459-.079.021.525.393.525.206 0-.516-.21-.298-.21-.65 0-.327.712-.263.599-.431-.093-.139-.16-.053-.235-.298.015.047-.56-.817.12-.374.714.469.796-1.086.758-1.166M64.323 36.505c.315 0 .569-.225.569-.501 0-.278-.254-.502-.569-.502-.315 0-.57.224-.57.502 0 .276.255.501.57.501M62.019 37.875c.315 0 .569-.225.569-.501 0-.279-.254-.503-.569-.503-.315 0-.57.224-.57.503 0 .276.255.5.57.5M34.634 41.032c.312 0 .57-.225.57-.501 0-.278-.258-.502-.57-.502-.315 0-.571.224-.571.502 0 .276.256.501.57.501M36.409 41.185c.314 0 .57-.225.57-.504 0-.276-.256-.5-.57-.5-.315 0-.571.224-.571.5 0 .279.256.504.57.504M85.71 17.288c.847 1.004 1.028 2.619.423 3.775-.333-.03-.272-.457-.333-.702-.604-1.124-1.087-2.555-.543-3.833.394.061.241.548.453.76M13.367 18.659c-.182.73-.182 1.735 0 2.404-.151.152-.12-.152-.271-.121-1.18-.852-.635-2.526-.938-3.715.061-.09.211-.12.303-.06.543.366.786.882.906 1.492M88.31 18.75c.18.334-.152.669-.394.821-.272.062-.574-.091-.755-.334-.092-.334.09-.64.363-.793.3-.028.604.031.785.306M11.524 20.09c-.06.272-.151.547-.393.668-.181 0-.454 0-.574-.151-.182-.153-.212-.426-.123-.64.123-.212.365-.243.575-.274.213.093.425.154.515.396M89.487 20.606c.06.184.06.304 0 .487-.211.274-.515.396-.814.274-.213-.12-.273-.334-.333-.518.06-.243.302-.455.512-.548.273 0 .454.154.635.305M87.764 20.638c.243.12.061.426.03.609-.15.15-.36.393-.634.304-.15-.153-.331-.153-.392-.367 0-.304.121-.608.423-.7.242-.06.393.062.573.154M85.559 21.093c0 .336.03.761-.363.822-.364.122-.604-.182-.695-.426a.723.723 0 0 1 .454-.73c.241 0 .453.153.604.334M14.817 21.246c.092.304-.211.487-.392.638-.212.061-.483-.12-.606-.334-.21-.212.061-.396.123-.579.301-.274.755-.061.875.275M13.004 21.338c0 .241-.12.487-.33.578-.243.09-.484-.091-.606-.277-.15-.301.031-.576.27-.698.335-.122.546.183.666.397M78.247 21.458c.301.64.543 1.4.604 2.192-.12.578.09 1.338-.334 1.735-.423-.153-.452-.67-.725-.943-.543-1.065-.06-2.313.123-3.349.242-.091.242.214.332.365M11.584 21.824c.09.366-.181.548-.393.76-.362.092-.604-.182-.755-.426a.762.762 0 0 1 .393-.73.778.778 0 0 1 .755.396M83.02 22.706c.394.883.424 1.947.152 2.922l-.182.151c-.424-.82-1.028-1.582-1.239-2.464 0-.638.121-1.218.364-1.735.21-.152.331.032.422.213.03.334.182.732.484.913M86.829 22.158c-.03.306-.151.64-.455.73-.302.062-.604-.03-.694-.365-.09-.304.09-.577.33-.73.334-.183.668.123.819.365M13.035 23.102a.65.65 0 0 1-.454.578c-.242.182-.421-.12-.635-.212-.09-.244-.151-.456 0-.7.091-.184.303-.184.485-.245.272.153.543.275.604.579M14.364 22.95c.12.305-.212.457-.332.61-.362.12-.543-.153-.695-.366-.06-.305.121-.489.333-.671.362-.09.543.154.694.427M87.674 22.858c-.03.396-.635.791-.696 1.187-.332.823-1.056 1.431-1.872 1.704-.182.153-.423.365-.694.396-.062-.608.483-1.157.814-1.703.634-.823 1.512-1.34 2.448-1.584M12.43 24.137c.454.518.694.974 1.24 1.43.03.122-.062.303-.212.303-1.48-.091-2.478-1.613-3.203-2.676.09-.338.482-.06.696-.091.513.394 1.086.517 1.48 1.034M88.097 24.563c-.06 1.31-.694 2.647-1.874 3.287-.332.122-.694.456-1.028.244.635-1.309 1.602-2.375 2.66-3.531h.242zM82.296 25.445c.09.458-.151.73-.515.883-.332.03-.544-.243-.695-.486a.635.635 0 0 1 .424-.67c.09-.092.24-.092.362-.092.182.062.273.214.424.365M10.768 25.72c.575.395 1.087.943 1.632 1.43-.392.274-.877.03-1.33.03-1.026-.365-1.722-1.246-2.779-1.552.029-.335.422-.212.634-.305.665-.06 1.208.244 1.843.397" fill="#FFF" mask="url(#o9igxs50ob)"/>
        <path d="M43.132 16.71c-1.691-.67-2.81 1.095-4.532.883-.212.121-.151.335-.272.488-.091.09-.243.03-.333-.03-.09-.73-.332-1.401-.423-2.101-.18-.304-.09-.73-.242-1.036-.967-2.647 2.357-.638 3.022-2.19.576-1.34-1.117-1.492-1.632-2.434v-.398c-.483-.486-.998-.638-1.3-1.277.213-.762.302-1.584.09-2.344-.028-.183-.15-.426-.42-.334-.576.79-.998 1.43-1.543 2.191-.575-.426-1.118-.975-1.783-1.34-.454-.06-.875-.517-1.39-.334-.09.182 0 .334.092.457.028 1.185.632 2.13 1.48 2.981l.09.459c-.542 1.246-.392 2.676-.542 4.016-1.36 3.469-3.566 6.817-6.558 9.222-1.722 1.949-3.78 3.836-4.05 6.513-.091.428.06.943-.272 1.248-.998-.366-1.993-.85-2.812-1.49-1.39-.976-3.383-.854-4.29-2.62-.362-.7.092-1.398.424-1.916 1.026-.974.877-2.708.332-3.894-.12-.033-.151.12-.24.15-.092 1.797-1.513 3.043-.969 5.023.122.576.423.943.576 1.49-.214-.06-.515-.06-.697-.152-.664-.091-1.329-.364-2.025-.275-1.39.641-3.293-.15-4.412 1.128-.181.031-.422.062-.361.335.664 0 1.298.182 1.963.151 1.058.183 1.753-.7 2.478-1.095h.182c.301-.305.816-.123 1.209-.184 1.902.215 3.384 1.128 4.956 2.07v.122c-.605.273-1.299.457-1.905.791-.694.519-1.48 1.187-1.692 2.04-.484.762.151 1.43.455 2.07.03.303.06.67.33.792.968-1.035.06-2.314.213-3.5.241-.915 1.088-1.34 1.964-1.583 1.721-.732 2.961.668 4.35 1.46-.03 1.4.152 2.739-.15 4.11-.422.15-.967.242-1.421.213-2.386.182-4.26 1.49-6.406 2.22-.965.337-2.114.306-3.081.67.755.213 1.54-.06 2.326-.09 2.96-.427 5.228-2.71 8.43-2.313l.06.092c-.361.76-.846 1.399-1.42 1.978-.09-.337-.12-.61-.422-.793-.242-.122-.514 0-.695.245-.09.15-.09.332 0 .456.15.273.393.334.665.426-.061.273-.394.394-.574.639-.847 1.431-2.569.852-3.567 1.855-.15.214-.694.337-.452.67 1.148.123 2.267-.183 3.111-.792 1.12-1.246 2.298-2.433 3.416-3.621.18.974-.092 1.98-.666 2.77-.27-.152-.483-.365-.816-.456-.301.06-.513.365-.543.609.121.212.242.455.454.608-1.028.732-2.327.792-3.506 1.126-2.205.273-4.35.457-6.587.487-1.059-.06-2.267.304-3.263 0-1.15.212-2.389-.153-3.325.487-.122.153.03.304.03.457 1.391.914 3.295.182 4.867.455h11.904c.877-.028 1.753-.06 2.447-.455 1.542-.883 2.389-2.467 3.174-4.019a6.145 6.145 0 0 0 .634-1.825 2.631 2.631 0 0 1 2.266-1.857c.152 1.582-.15 3.166-.513 4.626-.182.975-.815 1.917-.423 2.953.09.488.604.488.997.549 3.657-.061 7.314-.214 11.181.06.696.121 1.3.333 2.055.303.06-.091.273-.12.182-.302-.091-.336-.333-.761-.727-.853-.059-.183-.331-.122-.423-.244-1.932-1.096-4.26-.518-6.525-.488-1.18.123-2.357.335-3.356-.334-.452-.547-.122-2.282-.122-2.282 0-.688 1.663-5.479 1.876-5.874.06-.457.24-.884.182-1.401.24-.608.181-1.4.181-2.07.12-.975.604-1.886.935-2.83.182-.457.335-.943.514-1.4.181-.578.242-1.125.604-1.582.987.625 1.95.605 2.424 1.725l.417 2.535c0 .153.122.457.332.275.786-.518.545-1.674.545-2.465.182-.945-.484-1.401-.755-2.223-.213-.153-.56-.878-.56-.878-.121-.67-1.587-1.13-1.252-1.951.18-.702.361-1.341 1.026-1.737.096.07.14.142.151.218l.361-.254.039-2.548c.98-.003 2.44.123 3.437.123.273.091.484.305.787.334l.24-.334 2.45-.477c-1.04.117-1.672-1.078-2.661-1.078" fill="#FFF" mask="url(#o9igxs50ob)"/>
        <path d="M45.792 17.79c.075-.008.148-.023.226-.044l-.226.044zM19.471 26.268c.029.365-.18.577-.454.699-.241-.09-.42-.122-.573-.365-.12-.334.18-.578.422-.7.243.06.544.09.605.366M17.507 26.268c.182.181.211.487.12.699-.21.183-.543.334-.725.092-.18-.182-.362-.396-.21-.64.21-.212.573-.395.815-.151M59.571 26.603l.026.044M82.597 27.12c.12.335-.15.578-.392.7-.302-.092-.695-.153-.695-.548.03-.243.24-.395.452-.457.273-.091.515.123.635.304M84.2 27.059c.09.15.301.396.059.548-.12.092-.212.12-.302.243-.332.06-.633-.062-.724-.364-.062-.337.21-.488.452-.641.21-.061.362.094.515.214M9.921 27.424c-.119.365-.422.518-.814.397a1.304 1.304 0 0 1-.243-.397c.03-.214.092-.427.333-.517.363.03.635.183.724.517M20.107 27.942c-.033.242-.304.456-.515.577-.304.03-.514-.212-.664-.426 0-.243.12-.547.36-.609.334-.12.696.124.819.458M18.323 27.728c.09.091.18.334.09.488-.18.152-.453.426-.754.242-.183-.152-.394-.273-.334-.577.123-.123.273-.304.455-.365.241-.06.361.091.543.212M88.823 28.094c0 .242-.242.487-.393.577-.242.093-.515.032-.666-.151-.181-.061-.12-.304-.12-.457a1.04 1.04 0 0 1 .575-.396c.272.061.453.243.604.427M90.756 28.367c-.09.274-.301.518-.574.549-.18-.03-.513-.091-.453-.367 0-.212.122-.426.272-.487.302-.152.666 0 .755.305M13.367 28.794c.06.365-.06.607-.363.73-.21.122-.423-.03-.574-.151-.15-.153-.272-.398-.15-.61.059-.273.332-.214.513-.334.272.03.423.15.574.365M14.848 29.067c.09.244-.182.334-.242.517-.15.092-.362.183-.544.062-.212-.183-.454-.457-.242-.73.242-.457.877-.214 1.028.15M87.039 28.915c.03.304-.242.518-.423.7a.518.518 0 0 1-.604-.366c-.031-.244.122-.424.333-.578.27-.029.544 0 .694.244M89.518 29.402c-.061.275-.03.58-.332.76-.243.062-.543.031-.727-.12-.18-.153-.21-.426-.12-.64.15-.243.424-.426.725-.365.212.122.272.275.454.365M12.22 30.041c.12.243-.154.304-.243.426-.211.123-.423.032-.604-.06-.212-.123-.12-.425-.09-.577.27-.52.816-.153.936.211M87.614 30.62c.12.03.06.214.03.273-.724.367-1.813.457-2.448-.12-.363-.306-.814-.426-1.209-.671.151-.395.694-.366 1.088-.455.876.12 1.572.942 2.539.973M13.67 30.346c.06.242-.121.336-.182.517-.12.183-.364.123-.515.062-.27-.184-.391-.52-.212-.763.334-.334.727-.15.908.184M16.328 30.529c.12.273-.059.517-.301.668-.213.123-.393-.059-.574-.09-.152-.213-.425-.458-.152-.7.272-.457.815-.214 1.027.122M51.265 31.816c-.058.607-1.061-.087-.919.723.143.578.26 1.27.605 1.706.286.405.141 1.04.114 1.531-.26.436-.69.753-1.15.984-.86-.087-2.123.433-2.525-.635-.172-.463-.49-.927-.49-1.446.089-.06.204-.06.29-.147 0-.2-.23-.318-.201-.518.975-.176-.402-1.042.43-1.099.688.723 1.81.491 2.412 1.272.142.116.257.29.43.375-.115-.724-.459-1.445-.575-2.225-.086-.405.058-.781.346-1.012.517-.406.947.173 1.233.49M18.988 31.625c.09.303-.15.487-.332.638-.272.122-.423-.182-.545-.335-.092-.303.122-.456.302-.609.212 0 .453.092.575.306M37.632 31.928c.363 1.187.24 2.405-.362 3.41-.031.242.06.637-.272.607-.817-1.125-.212-2.708.12-3.895.06-.305.425-.426.514-.122M63.5 32.506c.422.853.453 1.978.06 2.83l-.242.243c-.333-.699-.604-1.399-.694-2.16.151-.548.33-1.033.36-1.613.426-.09.395.458.515.7M21.345 32.841c-.182.365-.694.456-1.028.7-.725.548-1.782.67-2.69.518.785-1.096 1.996-1.736 3.445-1.432.062.122.214.063.273.214M8.925 33.937c1.118.792 1.42 1.888 2.084 2.981.09.123.393.153.273.398-.242.183-.484-.184-.816-.122-1.148-.518-1.873-1.795-1.842-3.135 0-.122.181-.122.301-.122M62.321 34.88c.03.306-.03.61-.271.7a.552.552 0 0 1-.696-.365c-.09-.212.09-.335.15-.486.242-.245.666-.122.817.151" fill="#FFF" mask="url(#o9igxs50ob)"/>
        <path d="M75.074 36.493c0-.579.15-1.126.21-1.672.091-.183.151-.397.122-.64.724-.975 2.206-.67 3.353-.58.454.245 1.028.214 1.512.336.212-.152.514-.183.755-.152.967-.518.332-1.644.393-2.526l-.362-.913a3.464 3.464 0 0 1-.243-.61c-.18-.212-.3-.608-.482-.822-.514-1.338-1.512-2.099-2.359-3.164-1.54-2.009-3.958-3.135-6.375-3.926-2.387-.822-4.805.243-6.951 1.003-.664-.183-.997-.699-1.178-1.277a6.05 6.05 0 0 1 .576-3.225c.09-.763.602-1.34.816-2.041.543-1.705 1.115-3.377 1.238-5.235.06-1.126-.786-1.918-1.633-2.404-.574-.152-1.238-.122-1.66.335-.394.821-1.24 1.37-1.965 1.766-.061.517.573.181.786.364.664.123 1.419-.091 1.964.335.06 1.217-.636 2.222-1.27 3.134-1.028 1.523-2.115 3.075-2.75 4.75l-.12-.123.146 7.44c.964 1.602 2.166 3.43 3.964 4.034.966.79 2.175 1.734 3.473 1.035.696-.212.757.762 1.087 1.157.365 1.126-.451 1.919-.512 2.95l-.786 1.675c-.907 1.768-1.722 3.654-3.113 5.144-.453 0-.723.487-1.178.518-.241.334-.726.092-1.027.212-.937.397-2.268.153-2.9 1.036.059.09.15.123.24.153 1.843.029 3.9.15 5.863.061.242-.091.454-.305.483-.58-.271-.517.09-.974.333-1.369.15-.733.635-1.187.847-1.886.635-1.248 1.36-2.466 2.053-3.714l.938-1.522c.212-.517.574-1.157.937-1.704.24-.245.362-.518.543-.821.03-.306-.12-.428-.303-.64.213-.213.545-.153.816-.213.757.455 1.543 1.187 1.694 2.01l.272.79.12.365-.061 1.005.122.943c.151 1.461-.122 2.952-.273 4.414-.514 1.764-2.538 1.582-3.989 1.978-.362.242-1.056.12-1.056.73 1.752.365 3.806.153 5.68.123.302-.123.363-.398.514-.671.06-.396.453-.73.33-1.156-.33-.426-.028-1.096-.118-1.675.06-.152.06-.364 0-.577.241-.883.182-1.947.361-2.801l.123-1.157zM89.94 35.307c-.966 1.369-1.994 2.922-3.685 3.41-.122 0-.243.059-.304-.092 1.026-1.097 1.574-2.8 3.175-3.197.24-.12.573-.243.814-.12M7.444 36.798c-.15.12-.029.396-.302.427-.241.121-.512-.031-.633-.276-.124-.304.15-.608.392-.668.241.12.484.212.543.517M16.147 37.225c.09.273-.212.273-.362.334-1.27.456-2.57.03-3.476-.883 0-.122 0-.243.12-.274 1.24.304 2.691.062 3.718.823M9.107 36.828c.059.122.09.336.059.458-.182.273-.453.334-.755.273-.182-.091-.271-.213-.394-.395.031-.305.274-.487.515-.578.243.03.424.091.575.242M37.42 36.981c.062.274-.18.458-.361.577a.596.596 0 0 1-.635-.242c-.09-.212 0-.518.213-.58.271-.06.694-.03.783.245M91.088 37.103c.092.304-.18.457-.392.638-.181.092-.391 0-.575-.092-.03-.15-.21-.273-.15-.487.12-.273.393-.395.695-.364.151.122.272.152.422.305M93.084 36.981c.18.274.03.487-.12.7a.414.414 0 0 1-.546.183c-.18-.184-.423-.275-.452-.548 0-.245.271-.426.452-.518.303-.122.423.183.666.183M6.175 37.864c.03.212-.151.334-.211.517-.151.061-.304.183-.483.123a.89.89 0 0 1-.454-.49.794.794 0 0 1 .544-.608c.242.061.514.183.604.458" fill="#FFF" mask="url(#o9igxs50ob)"/>
        <path d="M69.815 37.864c.06.122.03.273.03.396-.18.244-.423.456-.724.304-.182-.183-.394-.366-.304-.641.244-.334.756-.456.998-.06M11.04 38.32c-.059.212-.15.426-.423.457-.27.03-.362-.214-.513-.336 0-.273-.03-.547.242-.7.362-.12.694.183.694.58M8.14 38.38c.09.304-.12.518-.302.671-.364.121-.667-.153-.816-.428.028-.273.242-.607.543-.7.273 0 .424.305.575.458M71.81 38.32c.06.304-.03.608-.333.73-.362.122-.665-.183-.816-.426.15-.244.181-.579.544-.638.272 0 .454.12.604.335M9.56 38.442c.09.212-.09.303-.153.456-.15 0-.24.184-.422.123-.12-.153-.362-.214-.392-.426-.031-.306.18-.457.392-.58.304-.03.485.184.575.427M89.426 38.685c-.09.243-.27.365-.514.487-.24.061-.391-.153-.573-.244-.152-.12-.092-.394-.03-.547.303-.517 1.117-.275 1.117.304M91.723 38.807c-.09.334-.423.487-.724.518-.273-.121-.576-.334-.363-.701.12-.12.181-.244.363-.274.362-.122.635.154.724.457M77.369 39.02c.153.396-.21.517-.453.7a1.376 1.376 0 0 1-.574-.243.701.701 0 0 1 .423-.791c.273 0 .424.122.604.334M69.06 39.385c.151.061.09.273.06.365-.18.122-.422.426-.695.244-.211-.122-.362-.305-.303-.578.153-.335.788-.365.938-.031M70.752 39.599c.03.242-.03.364-.242.487-.212.212-.452-.03-.664-.092-.061-.122-.121-.306-.03-.457a.671.671 0 0 1 .39-.244c.214.061.456.061.546.306M19.471 39.628c.18.182-.03.397-.06.58-.151.182-.485.333-.756.151-.301-.121-.27-.519-.21-.76.18-.06.18-.274.421-.274.273.03.424.153.605.303M80.603 39.75c.06.304-.243.426-.454.487-.36.123-.544-.152-.694-.397 0-.181.18-.302.242-.454.422-.184.695.122.906.364M78.972 39.75c.12.304-.212.458-.333.61a.606.606 0 0 1-.665-.123c-.15-.09-.15-.275-.15-.458.179-.15.27-.332.484-.393.27 0 .543.152.664.364M92.6 40.115c.06.427-.484.214-.694.336-1.27.76-2.903.182-4.111-.275.092-.395.544-.242.788-.395 1.298-.823 2.627.183 3.926.244l.091.09zM9.892 39.75l-.12.212c-1.12.67-2.57 1.128-3.898.702l-.122-.183c1.117-.822 2.599-1.034 4.05-.822l.09.091zM83.685 39.963c0 .245-.12.458-.301.579-.303.092-.696 0-.788-.334-.09-.245.153-.487.394-.58.211 0 .575.031.695.335M15.301 40.085c-.12.243-.059.487-.362.61-.303.12-.666-.153-.756-.398-.09-.334.151-.424.302-.577.363-.183.636.09.816.365M13.156 40.237c.09.214-.091.334-.152.487-.151.183-.422.153-.605.092-.21-.183-.422-.396-.332-.73.184-.153.273-.246.484-.336.273.06.544.183.605.487M85.801 40.937a.653.653 0 0 1-.484.548c-.243.03-.452-.152-.574-.303a.478.478 0 0 1 .122-.58c.059-.09.27-.09.39-.152a.65.65 0 0 1 .546.487M10.92 40.603c.09.243-.12.334-.151.518-.092.516-.424.85-.666 1.307-.574.699-1.39.699-2.206.914l-.12-.244c.875-1.127 1.814-2.008 3.053-2.556l.09.061zM84.29 41.273c.06.364-.243.427-.454.576a.684.684 0 0 1-.604-.364c-.09-.335.21-.457.392-.609.303-.06.576.152.666.397M14.394 41.273c-.029.059.032.12.091.15-.03.337-.272.426-.453.58a.819.819 0 0 1-.665-.303c-.12-.277 0-.61.302-.702.271-.031.635 0 .725.275M89.85 42.185c.302-.03.362-.396.696-.456.302-.061.572.12.725.336.12.363-.153.547-.393.7-.213.15-.666-.184-.635.211.212.153.393.366.422.608-.06.123-.27.092-.361.033-.877-.368-1.815-.975-2.178-1.888-.12-.274-.694-.488-.361-.73.876-.062 1.601.638 2.085 1.186M92.751 41.241c.151.151.09.427-.03.58-.151.304-.605.181-.876.15-.152-.15-.302-.303-.242-.546a.964.964 0 0 1 .452-.396c.273-.06.484.061.696.212M81.782 42.885c.271.335.543.852.663 1.218-.059.092-.21.061-.27.061-1.028-.58-2.357-1.217-2.752-2.435-.09-.122-.33-.275-.3-.487.784-.153 1.541.426 2.085.852.211.304.454.457.574.791M12.703 41.73c.12.272-.122.486-.271.607-.333.063-.515-.06-.698-.243-.21-.334.183-.61.426-.73.241-.031.392.213.543.365M85.559 42.429c.03.183-.211.303-.302.427-.241.03-.484.121-.696-.093-.06-.15-.21-.395-.03-.546.334-.428.817-.092 1.028.212M93.084 42.855c.09.365-.182.61-.424.761-.3.09-.543-.121-.725-.274-.151-.183-.03-.367 0-.579.21-.183.483-.335.786-.212.12.09.243.151.363.304M72.172 47.055c0 .365-.665.273-.936.548-.938.485-2.055.485-3.173.455v-.182c1.087-.91 2.658-1.247 4.11-.821M28.084 48.363c-.032.275-.183.427-.454.517a.587.587 0 0 1-.515-.303c-.12-.365.184-.518.395-.67.273.03.513.245.574.456M71.659 48.698c-.061.275-.151.578-.454.7-.273.06-.452-.09-.666-.212-.15-.122-.06-.336-.089-.488.211-.547.997-.547 1.209 0M77.673 48.82c-.755.488-1.602 1.066-2.6 1.066l-1.631-.032-.152-.12c.998-1.218 2.811-1.218 4.383-1.096v.182zM19.803 49.55c0 .275-.12.487-.393.579-.3.06-.513-.061-.635-.273-.12-.275 0-.549.243-.702.332-.213.665.153.785.396M21.314 49.855c.09.15-.059.245-.12.396-.182.091-.423.152-.574 0-.212-.123-.273-.335-.181-.518.092-.184.27-.151.363-.274.21.09.422.184.512.396M9.741 52.93c-.302.364-.786-.093-1.118-.276-1.06-.607-1.027-1.794-2.086-2.496.12-.363.393.032.605-.029.179.122.422.244.636.335 1.027.577 1.267 1.551 1.963 2.465" fill="#FFF" mask="url(#o9igxs50ob)"/>
        <path d="M49.78 52.35c-.12.367-.363.67-.332 1.065l-.121.061c.09-.455-.363-.73-.24-1.215-.243-.368-.243-.825-.455-1.218-.272-.489.24-.701.454-1.036.423.182.574.58.876.942.18.519-.212.914-.182 1.401m48.047-11.23c-.482-.884-1.3-1.249-2.267-1.249-.784.062-1.36.58-1.692 1.25-.18.67.062 1.278.574 1.674.214.09.484.06.604-.153.153-.397-.27-.397-.33-.701-.123-.426.03-.79.33-1.065.304-.304.818-.153 1.18-.153.363.245.726.458.905.884a2.433 2.433 0 0 1 0 1.613c-.332.762-1.085 1.37-1.87 1.523-2.51.363-30.04.242-30.04.242-3.232.304-6.92-.608-9.7 1.097-1.268.608-1.902 2.006-2.236 3.256-.816.729-1.691 1.583-2.356 2.403l-.092-.09c.152-.73.484-1.37.637-2.1.451-.61.451-1.431.785-2.1 1.149-1.858 2.235-3.744 4.018-5.052.755-1.005 2.086-.823 3.233-.823 1.238.579 2.691.76 4.201.61a.28.28 0 0 0 .09-.215c-.422-.395-1.118-.547-1.6-.942-1.208-.579-2.359.181-3.627.092-.06-.061-.122-.092-.091-.184 1.15-.852 2.447-1.46 3.747-2.01 1.058-.577 2.175-.88 3.294-1.307.454 0 .876-.396 1.299-.12l1.602-.429c.06.033.122.123.242.092 1.36-.456 3.081-.03 4.623-.059l.212.181 1.45.365c.543.061.786.7 1.36.73.302-.425-.333-.608-.484-.88.666-.153 1.42.028 2.025.303l-.3.335c-.184.334.089.577.36.7.213.06.364-.092.513-.154.395-.273-.029-.546.091-.791 2.237.396 4.384.944 6.438 1.827.574.182 1.117.608 1.753.577-.636-.577-1.512-.881-2.297-1.215-.515-.306-1.24-.336-1.633-.762.09-.153.304-.092.394-.212 1.028-.123 1.904-.884 2.63-1.706.06-.182.39-.122.361-.365-.27-.303-.726.092-1.087.062-1.27.242-1.815 1.733-3.083 2.009-1.54-.366-3.112-.73-4.655-1.126-.755-.123-1.57-.184-2.264-.49l-1.693-.151h-3.083c-.03-.061-.12-.09-.091-.182 1.089-.273 2.025-.913 3.113-1.188l8.1-3.713c.846-.76 1.6-1.613 2.297-2.494a.579.579 0 0 0-.334-.58c-.211-.09-.454-.06-.605.122-.361.275 0 .609 0 .945-.361.485-.936.912-1.388 1.185-.12-.03-8.341 3.746-8.341 3.746-1.209.516-2.418 1.093-3.688 1.368l-1.753.273c-.12.366-.422.579-.755.7-.484.092-.875.396-1.39.396-3.93 1.523-8.008 3.136-11.12 6.24.181-.364.273-.823.302-1.28-.06-.455-.029-.972-.333-1.337-.07-.17-.292-.66-.22-.836l-.443.288c-.273.67-.514 1.886-.241 2.587.09.547.543 1.187.12 1.674-1.45 1.764-2.268 3.895-3.233 5.904-.364-.06-.545-.396-.696-.731 1.028-1.308 1.844-2.77 2.146-4.443.21-.152.06-.547.272-.73-.061-.487.27-.974.03-1.37.193-.664-.883-1.278-.196-1.704l-.569.273c-1.301 1.705.674 4.261-.808 5.907v.12c-.423.548-.635 1.095-1.208 1.46-.725-.304-.996-1.126-1.42-1.735-.665-.638-.665-1.947-.272-2.829.272-.882-.181-1.645-.273-2.436l-.3-.181c-.726.943-.998 2.434-.424 3.56.301.548.332 1.309.787 1.766.271.882.814 1.46 1.298 2.252.122.304-.182.365-.33.517-.334-.213-.274-.7-.576-.914-.998-2.13-2.297-3.835-3.867-5.568-.061-.275-.335-.518-.184-.822.576-.549.696-1.614.395-2.315-.06-.15-.242-.334-.211-.486l-.455-.365c.061 1.065-.635 2.009-.333 3.136v.06a57.431 57.431 0 0 0-10.059-6.08l-.277.773c.884.223 3.235 1.653 3.235 1.653 1.059.397 2.025 1.036 3.022 1.615 4.11 2.282 6.83 6.055 8.672 10.257.031.334.334.698.123 1.034-.636-.973-1.542-1.522-2.298-2.313-.212-1.432-1.057-2.8-2.296-3.379-.454-.668-1.42-.728-2.176-.944l-11-.06c-8.945-.122-17.103.276-25.986.122-1.24-.123-2.753-.548-3.113-1.856-.242-.456-.242-1.248 0-1.674.332-.579.936-.761 1.54-.822.483.06.817.517 1.028.853 0 .395-.334.76-.485 1.095.031.121.151.365.365.273.391-.152.694-.577.786-.973.028-.214.12-.518-.092-.67-.181-.64-.847-1.096-1.418-1.249-.76-.06-1.543.153-2.057.701-.725.609-.695 1.705-.483 2.558.483 1.338 1.903 2.253 3.264 2.434l29.403.122c2.87.151 6.103-.336 9.004.244 1.058.334 2.177 1.125 2.447 2.312-.03.06-.12.03-.21.03-2.389-1.551-5.532-2.13-8.584-1.765-1.208-.062-2.296.395-3.384.7-.574.123-1.118-.152-1.481-.486-1.088-.975-2.992-.913-4.38-.55 0 .093-.03.184.029.215 1.48-.122 2.358 1.157 3.687 1.309.303.06.543-.274.816-.031-1.39.667-2.72 1.46-4.2 1.887-.454-.09-.697-.516-1.058-.761-.575-.64-1.633-.365-2.416-.426-.273.061-.516-.122-.697 0 .242.487.785.76 1.301 1.004.753.334 1.63-.03 2.326.426-.183.214-.424.275-.635.428-1.421.546-2.599 1.824-4.17 1.735-1.66.18-3.354-.306-4.473-1.462-.483-1.187-1.722-1.827-3.053-1.764-.09.059-.21.059-.18.212.664.395 1.179 1.185 1.843 1.641.423.519 1.239 0 1.631.58.575.395 1.301.732 1.965.852.484.214 1.028.304 1.571.427l-.21.121c-2.751.912-5.924 1.004-9.005.884-.906-.033-1.783-.306-2.691-.276.15.184.454.335.726.426-.241.151-.514.212-.816.245-.362.092-.786.122-1.15.304-.482-.031-.905.152-1.298.303-.515.547-1.12 1.128-1.721 1.401 0 .121-.031.305.12.305.574-.244 1.3-.062 1.874-.305.995-.092 1.57-1.188 2.356-1.643.845-.67 2.055-.518 3.084-.365.603.15-.061.395.12.792.243.212.452.456.786.362a.537.537 0 0 1 .212-.15c.18-.244.15-.518.028-.762.425-.275.998.03 1.451-.15 1.15-.031 2.298-.276 3.416-.308.18-.029.392-.212.573-.029-.09.245-.393.276-.27.61.058.273.362.395.603.455.302-.121.573-.334.453-.728-.06-.214-.302-.245-.453-.337.634-.305 1.36-.395 1.993-.699a5.655 5.655 0 0 0 1.27-.427c.393-.03.726-.395 1.087-.242a6.25 6.25 0 0 1-.634 1.46c-.482 1.613-.845 3.744 0 5.295.091.031.12-.03.182-.06-.635-1.612-.272-3.47.27-4.99.424-2.588 3.084-3.35 4.987-4.324l.091.124c-.512 1.336-1.267 2.617-1.147 4.23.059.273-.12.546 0 .73.512-.275.845-.885 1.117-1.402.212-1.369-.573-3.071.817-4.077 2.478-.974 4.804-2.253 7.675-2.282.09.09.302-.06.33.12-.604.67-1.479 1.31-1.752 2.131-.966 1.34-.936 3.622-.513 5.265.274.945-.544 1.462-.936 2.193-.188.257-.241.7-.415.997l.596.068c.515-.547.998-1.218 1.029-2.01.059.304.33.55.571.61.213-.336-.18-.58-.21-.913.484-.275.696.334 1.087.456.635.151 1.18.426 1.844.426l.212-.213c-.666-1.034-1.994-1.217-3.143-1.279-.604-1.003-.604-2.25-.543-3.47.12-.637.24-1.307.604-1.886.15-.425.574-.822.845-1.157a4.191 4.191 0 0 1 1.904-1.034h.09c0 .061.03.092.03.092-.815.639-.905 1.521-1.39 2.312-.514.76-.756 1.795-.27 2.647.181.395.09 1.004.513 1.279.393-.548.423-1.248.633-1.856-.09-1.005-.694-1.949-.12-2.922.304-.76.938-1.067 1.632-1.34 1.663-.15 3.114.7 4.563 1.34.304.214.816.395.877.821-.03.823-.482 1.644-1.117 2.04-.817.485-1.994.546-2.752-.03-.452-.457-.634-1.249-.483-1.858.333-.365.786-.67 1.33-.486.302.152.574.458.967.274.151-.09.212-.335.121-.488-.333-.181-.453-.638-.907-.699-.574-.092-1.27-.061-1.662.334a2.142 2.142 0 0 0-.694 2.13c.212.974.936 1.675 1.872 1.95 1.391.333 2.843-.094 3.718-1.28.362-.395.452-.82.664-1.309 1.451.882 2.54 2.436 3.113 4.019 0 .516.152 1.064.03 1.52l1.057.093c-.09-.243 0-.518.092-.73.393-2.01 1.632-3.684 3.112-4.994.514-.303.393.398.514.61.453 1.158 1.511 1.977 2.63 2.313 1.268.214 2.477-.091 3.262-1.063.393-.732.878-1.797.212-2.559a2.086 2.086 0 0 0-1.662-.791c-.786 0-1.269.548-1.661 1.128 0 .242-.033.515.18.637.12 0 .363.03.453-.15.06-.459.453-.67.816-.914.334-.184.696 0 .967.182.333.273.394.732.423 1.188-.06.577-.452 1.187-.996 1.43-.877.456-2.147.244-2.902-.273-.362-.398-.574-.853-.847-1.34-.059-.487-.241-.914 0-1.401 1.331-.791 2.72-1.37 4.322-1.522.635.123 1.18.548 1.601 1.004 1.39 1.432-.301 3.47.666 5.05.362-.058.362-.545.512-.849.455-1.095-.12-2.282-.392-3.348-.363-.67-.573-1.248-1.148-1.796.15-.06.212-.06.362-.06.635.425 1.331.913 1.844 1.582a8.166 8.166 0 0 1 1.178 4.992c-.24.911-1.209 1.34-1.964 1.674-.3.243-.663.607-.814.973.36.214.875 0 1.237-.151.575-.215.908-.945 1.301-1.278.06.03.03.121.06.183.03.334-.152.79.15.88.152-.426.182-1.033.272-1.55.393.425.453.973.575 1.52.272.549.724 1.28 1.45 1.37.181-.273-.03-.548-.09-.79-.09-.762-.725-1.157-1.148-1.706-1.059-1.462-.575-3.744-1.391-5.387-.302-.881-.937-1.521-1.632-2.252l.12-.122c1.481-.03 2.72.458 4.08.73 1.663.822 4.08.64 4.866 2.8.332 1.217.877 2.345 1.722 3.288l.092-.06c.18-.304.18-.821 0-1.127-.182-1.521-1.512-1.887-2.208-3.165l.091-.122c.725.214 1.482.395 2.206.7 2.418.67 4.11 3.043 4.412 5.51 0 1.946-.361 3.56-1.118 5.203-.09.244-.513.517-.243.73.334-.243.394-.638.576-.913.997-1.674 1.51-3.986.997-6.116-.03-.397-.484-.7-.273-1.095.153.18.334.211.514.273.183-.123.455-.123.576-.337.03-.183.15-.395 0-.546-.182-.275-.576-.275-.876-.214-.153.184-.334.426-.365.67-.3-.517-.604-1.185-1.088-1.612l.061-.092c1.362.456 2.599 1.126 3.99 1.49.302.184.634.337 1.057.337 1.18.456 2.477.638 3.717.942.907-.09 1.662.335 2.569.123v-.061l-.03.03c-.333-.427-1.057-.03-1.45-.335-2.086-.213-4.081-.76-5.955-1.492.03-.09.153-.061.242-.061.303-.15.515-.425.484-.76-.15-.213-.393-.333-.696-.333-.181.09-.421.301-.452.515.03.245.24.518.452.578-.059.061-.181.03-.27.03-.937-.424-1.845-.822-2.752-1.246-.332-.06-.603-.336-.936-.397-.694-.334-1.39-.67-2.085-.942-1.933-1.005-4.08-1.552-6.135-2.284-.452-.12-.875-.243-1.3-.365-.754-.213-1.51-.396-2.264-.608-2.57-.638-6.014-.699-8.25.7-.363-.122-.575.454-.756.092.635-1.675 2.478-2.223 4.14-2.283 12.118-.122 23.48-.214 35.417-.397 1.39 0 2.749-.487 3.475-1.733.513-.732.603-1.98.21-2.8" fill="#FFF" mask="url(#o9igxs50ob)"/>
        <path d="M82.567 50.434c0 .09.181.12.12.273-1.057.945-2.536 1.218-4.048 1.279-.12.03-.243.12-.392.09-.092-.06-.12-.151-.062-.212 1.089-1.187 2.75-1.796 4.382-1.43M77.702 50.92c.12.426-.15.67-.485.822-.33-.03-.512-.245-.663-.49-.09-.242.12-.362.212-.515.24-.243.816-.243.936.183M20.257 50.982c.06.211.029.487-.15.637-.12.153-.393.184-.546.153-.212-.03-.332-.273-.391-.456 0-.273.15-.426.391-.579.242 0 .515-.029.696.245M14.848 52.959v.212a2.343 2.343 0 0 1-1.964-.455c-.424-.61-.908-1.22-1.601-1.52 0-.095-.184-.215 0-.276 1.51 0 2.416 1.218 3.565 2.039M87.16 50.95c-.696 1.034-1.3 2.314-2.538 2.772-.21 0-.392.301-.576.09.485-1.16 1.512-2.404 2.691-2.89.122 0 .301-.033.423.028M22.01 51.316c.03.335-.211.397-.424.577-.242.033-.362-.15-.515-.334-.12-.305.153-.426.304-.577.241-.062.514.12.635.334M90.968 51.498c-.271.396-.151.974-.423 1.4-.605.7-1.118 1.492-2.085 1.644-.15-.303.212-.609.363-.883.424-.913 1.028-1.947 1.994-2.342l.15.18zM5.48 51.772c.09.214.181.427 0 .671a.713.713 0 0 1-.694.12.565.565 0 0 1-.242-.73c.18-.273.724-.426.936-.061M3.758 52.138c.029.15.12.273.09.426-.09.152-.24.335-.422.365-.333.061-.543-.121-.695-.395-.032-.274.06-.519.3-.641.274-.121.576.033.727.245M7.322 52.32c.062.243.123.671-.241.73-.424.185-.664-.12-.906-.365 0-.275.151-.487.364-.609.302-.028.573 0 .783.245M12.28 52.716c-.03.212.03.518-.213.577-.15.154-.423.094-.573.061-.062-.181-.394-.334-.212-.548.122-.152.242-.242.424-.334.18.092.454 0 .573.244M93.869 52.93c-.09.211-.211.486-.454.486-.27-.03-.544-.06-.694-.336-.122-.334.15-.517.393-.608.301 0 .696.123.755.457M88.34 53.081c.028.245-.243.426-.363.518-.423.181-.786-.122-.939-.457.061-.273.274-.457.516-.548.392-.03.604.181.785.487M92.086 53.02a.63.63 0 0 1-.27.518c-.244.091-.546.06-.727-.122-.272-.245-.06-.457.122-.64.27-.152.783-.122.875.244M4.694 53.538c.061.334-.059.638-.363.76-.272 0-.573-.15-.664-.426-.031-.273.058-.546.303-.638.3-.093.544.092.724.304M86.829 53.873c.09.334-.09.637-.424.791-.242.06-.395-.06-.574-.215-.12-.15-.272-.487-.03-.638.242-.456.846-.273 1.028.062M20.951 54.207c.12.335-.241.397-.33.577-.123.061-.364.094-.453-.028-.153-.184-.333-.367-.244-.64.152-.123.211-.243.393-.305.333-.09.454.213.634.396M93.324 54.42c.062.212-.119.304-.15.458-.182.151-.484.182-.694.12-.273-.152-.273-.394-.273-.668.181-.122.212-.275.424-.337.27 0 .604.121.693.427M91.452 54.51c.12.368-.212.55-.454.64-.12.031-.301-.06-.332.122.786.397 1.27 1.035 1.873 1.613v.244c-1.087-.031-2.207-.304-2.99-1.156-.214-.153-.576-.153-.817-.367.394-.395 1.118-.242 1.662-.273.392-.426-.454-.73.06-1.093.182-.033.302-.216.544-.155.211.092.334.245.454.426M79.092 54.542c.06.151-.12.334-.15.487a.607.607 0 0 1-.664.123c-.153-.213-.396-.398-.304-.701.243-.458 1.028-.366 1.118.091M11.524 55.608c-.09.273-.212.456-.515.487-.24-.03-.452-.123-.544-.365-.03-.212.122-.334.153-.488.332-.274.936-.092.906.366M13.972 55.212c0 .426-.454.67-.604 1.094-.455 1.006-1.27 1.918-2.418 2.01-.122-.274.393-.609.514-.882.482-1.035 1.45-1.582 2.327-2.222h.181zM78.367 55.637c.028.335-.271.58-.515.7-.27.092-.483-.12-.634-.242-.241-.244-.09-.486.03-.73.364-.366.877-.062 1.119.272M80.24 55.852a.756.756 0 0 1-.544.67c-.06-.094-.21-.033-.302-.063-.212-.12-.393-.304-.393-.546.15-.153.212-.396.424-.427.27-.03.726 0 .816.366M18.655 55.82c.03.335-.21.518-.453.638-.271.033-.453-.15-.574-.365-.06-.273.21-.456.362-.607.363-.123.454.15.665.334M20.741 55.942c-.092.273-.273.458-.575.518-.21-.06-.453-.121-.545-.367-.028-.302.214-.456.424-.608.303 0 .635.123.696.457M86.738 58.073c.15.12.423.271.362.487-.482.212-.877-.336-1.329-.426-.726-.73-1.27-1.521-1.571-2.435.27-.275.573.061.816.152.694.579 1.36 1.34 1.722 2.222M87.856 55.942c.09.212.06.458-.061.67-.182.304-.574.244-.845.182-.153-.181-.425-.426-.242-.701.09-.24.362-.302.573-.395.212-.029.363.155.575.244M23.52 56.734c.032.243.091.61-.211.76-.274.061-.634-.03-.725-.365-.15-.366.18-.426.362-.607.242-.063.393.06.573.212M80.15 58.711a4.43 4.43 0 0 1 .784 2.163c-.09.211.152.424-.029.576h-.12c-1.361-.973-1.663-2.342-2.176-3.712-.122-.06-.152-.183-.122-.305.302-.273.515.275.816.365l.847.913zM27.448 57.677c-.028.029 0 .061.031.061-1.209.852-2.902 1.369-4.292.549-.03-.092.03-.245.152-.275.877-.274 1.722-.7 2.66-.58l1.45.245zM20.558 57.83c-1.027.639-1.963 1.887-3.232 2.19-.243.092-.394.427-.695.243.544-1.643 2.328-2.524 3.927-2.678v.244zM78.367 59.198c.09.245 0 .579-.242.64-.152.152-.452.152-.572 0-.273-.122-.273-.395-.273-.61.09-.211.301-.24.452-.334.272.061.484.061.635.304M75.86 59.351c-.182.426-.695.67-1.088.79-1.029.367-1.965-.12-2.871-.364.03-.242.33-.153.483-.306.996-.211 2.024-.425 3.082-.15.092-.061.304-.092.393.03M20.558 60.234c-.09.122-.12.396-.362.487-.211.09-.421 0-.604-.12-.06-.186-.273-.339-.12-.55.06-.214.303-.275.482-.335.303.03.545.212.604.518M22.342 60.507c-.09.182-.18.458-.423.58-.243.058-.424-.062-.605-.213-.09-.185-.18-.395-.09-.611.06-.152.271-.183.424-.273.3-.03.574.273.694.517M77.792 60.811c.031.245-.09.396-.21.579-.151.213-.453.242-.665.121-.212-.03-.272-.273-.364-.425-.181-.244.122-.397.212-.607.334-.277.877-.124 1.027.332M79.122 60.751c.03.151.123.304.061.426-.181.151-.303.549-.665.396-.18.059-.271-.184-.363-.245-.12-.303-.03-.76.363-.821.272-.092.453.153.604.244M21.255 61.632c.059.337-.061.64-.304.823-.33.06-.755.06-.877-.335-.029-.304 0-.699.365-.883.301-.03.663.03.816.395M22.976 61.512c-.06.852-.242 1.888-1.087 2.373-.484.092-.968.55-1.451.245v-.153c.635-.913 1.783-1.613 2.538-2.465M73.048 62.211c.12.184-.09.336-.181.488-.18.212-.515.122-.724.03-.212-.09-.243-.396-.152-.607.06-.184.241-.276.392-.337.273-.03.515.215.665.426M25.999 63.611c.423.7.181 1.644.423 2.405-.513.06-.727-.517-1.058-.822-.665-.912-.575-2.13-.877-3.194a.162.162 0 0 1 .212-.063c.453.306.785.883 1.149 1.278-.061.213.18.213.15.396M74.559 62.455c0 .245-.271.306-.423.458a1.133 1.133 0 0 1-.574-.274c-.09-.306.152-.396.303-.549.3-.122.604.03.694.365M78.156 65.165c0 .09-.03.27-.181.21h-.123c-.875-.79-1.751-1.67-1.63-2.89l.181-.03c.814.701 1.722 1.461 1.753 2.71M75.889 64.19c.03.245-.12.427-.271.577-.333.094-.847.06-.908-.394-.03-.305.304-.456.454-.609.362-.092.605.153.725.426M73.894 64.828c-.422 1.126-1.57 1.705-2.356 2.558-.151-.093-.092-.334-.062-.457.304-1.156 1.21-2.282 2.329-2.739.483.062 0 .396.09.638M76.161 65.742c0 .273-.27.396-.423.548-.242-.03-.483-.09-.664-.336-.03-.302.21-.395.391-.546a.626.626 0 0 1 .696.334M53.717 10.726h-.334c-.876 0-.132 1.062.337 1.062.587 0 .623-1.062-.003-1.062zm-2.705 1.062c.875 0 .047-1.062-.425-1.062h-.876c-.875 0-.046 1.062.424 1.062h.877zm-3.672 0c.875 0 .047-1.062-.424-1.062h-.874c-.877 0-.048 1.062.421 1.062h.877zm6.335-1.301a.75.75 0 0 1 .747.754.748.748 0 0 1-.747.75h-8.961a.749.749 0 0 1-.747-.75.75.75 0 0 1 .747-.754h8.961zM53.739 24.378c0 .397.532.134.925.134s.924.263.924-.134c0-.56-.53-.365-.924-.365-.393 0-.925-.195-.925.365zm1.677.936c.386 0 .42-.531.42-.987 0-1.04-.823 0-1.244-.979-.307.825-1.152.061-1.152.949 0 .61-.003 1.017.602 1.017h1.374zm-2.527-4.546 1.714.658 1.682-.658-.665 2.52 1.334-.275-.457 1.526.457 1.467-1.182-.321.513 2.718-1.682-.656-1.714.656.697-2.718-1.363.382.363-1.528-.363-1.465 1.304.213-.638-2.519zM48.882 24.475v-.32l-.286-.054.224-.233-.139-.257.293.03.178-.311.173.307.299-.026-.14.257.225.233-.286.054v.32l-.27-.203zM47.554 26.186v-.32l-.288-.053.225-.234-.138-.257.293.03.178-.311.173.307.299-.026-.138.257.223.234-.286.053v.32l-.271-.203zM49.808 25.969v-.32l-.286-.054.225-.235-.14-.257.294.03.178-.31.174.305.299-.025-.14.257.223.235-.284.054v.32l-.272-.204zM50.074 27.247v-.181l-.162-.03.127-.132-.079-.147.165.017.102-.174.098.173.168-.016-.078.147.127.131-.162.03v.182l-.153-.114zM47.98 28.71v-.55l-.492-.091.386-.402-.24-.44.505.053.306-.534.296.526.512-.045-.239.44.384.402-.49.092v.549l-.463-.349zM49.047 0l1.063 2.617 2.697-.792-1.368 2.467 2.296 1.63-2.77.462.167 2.823-2.085-1.892-2.087 1.892.168-2.823-2.77-.462 2.296-1.63-1.367-2.469 2.695.794zM39.297 58.694c-.32.12-.446.206-.367.54l.381 1.602c.07.3.092.766-.107 1.053-.235.344-.735.565-1.094.651-.264.064-.835.168-1.292-.024-.302-.129-.5-.267-.628-.812l-.398-1.679c-.1-.423-.258-.395-.6-.345l-.031-.125 2.025-.488.032.126c-.394.11-.577.16-.474.603l.399 1.68c.067.288.232.98 1.095.775 1.056-.254.884-1.027.808-1.35l-.363-1.533c-.072-.307-.185-.463-.706-.357l-.028-.126 1.317-.317.03.126zM42.3 59.03c-.185-.33-.675-.83-1.385-.672-.314.07-.61.298-.538.625.06.272.198.357.752.458l.965.17c.222.04.745.23.866.781.097.443-.153 1.142-1.262 1.387-.57.128-.878.02-1.067.059-.125.027-.134.127-.14.212l-.176.039-.273-1.247.174-.038c.233.483.708.973 1.471.805.723-.161.64-.669.627-.735-.073-.337-.382-.395-.808-.465l-.439-.072c-1.12-.184-1.216-.618-1.266-.85-.07-.31-.034-1.036 1.109-1.29.481-.107.801-.006.977-.042.137-.033.15-.115.16-.218l.18-.04.242 1.096-.17.037zM46.287 61.024l-2.19.209-.013-.128c.445-.073.59-.098.551-.53l-.259-2.715c-.426.061-1.056.148-1.101.983l-.179.019-.079-1.037 3.682-.355.111 1.035-.178.015c-.2-.81-.835-.775-1.261-.755l.258 2.714c.042.437.19.434.647.414l.01.13zM48.743 59.186c.806.011 1.129-.098 1.142-.77.01-.523-.237-.75-.73-.76-.338-.005-.353.052-.387.21l-.025 1.32zm2.669 1.838L50.149 61l-1.244-1.644-.165-.004-.021 1.016c-.009.413.127.43.533.485l-.003.129-2.08-.04v-.13c.422-.034.544-.045.552-.466l.045-2.285c.008-.447-.182-.46-.532-.489l.002-.128 1.984.04c.43.007 1.735.074 1.719.943-.012.637-.65.786-.984.866l1.209 1.498a.31.31 0 0 0 .25.104l-.002.13z" fill="#FFF" mask="url(#o9igxs50ob)"/>
        <path d="m53.742 60.097-.463-1.323-.73 1.175 1.193.148zm1.714 1.446-1.981-.25.016-.126c.382.021.493.03.515-.14.017-.139-.133-.543-.198-.718l-1.376-.173c-.215.35-.34.548-.351.63-.022.194.268.245.475.283l-.016.128-1.242-.155.017-.128c.333 0 .443-.165.672-.527l1.707-2.64.171.021 1.028 2.87c.208.582.283.77.579.796l-.016.129zM59.044 62.274l-3.505-.644.024-.128c.345.026.53.045.586-.265l.447-2.462c.059-.338-.187-.393-.457-.459l.025-.126 2.115.387-.023.126c-.428-.06-.616-.09-.698.358l-.433 2.401c-.045.246.08.312.488.386.914.169 1.33-.193 1.715-.715l.174.03-.458 1.11zM61.37 62.794l-2.111-.443.027-.128c.33.045.569.073.635-.24l.505-2.45c.07-.335-.212-.405-.486-.48l.027-.124 2.11.444-.026.126c-.286-.05-.575-.104-.648.24l-.506 2.448c-.067.324.171.39.498.479l-.025.128zM63.909 61.934l-.492-1.314-.703 1.191 1.195.123zm1.746 1.41-1.988-.208.013-.127c.385.013.496.02.511-.15.015-.14-.143-.54-.21-.714l-1.38-.143c-.21.352-.33.553-.339.636-.02.196.274.24.48.271l-.012.13-1.245-.13.014-.128c.334-.006.438-.172.661-.538l1.649-2.679.174.019 1.09 2.847c.22.58.299.764.594.785l-.012.129zM48.82 21.843c-.363 0-.852.248-.852-.182 0-.609.414-.472.777-.472.361 0 .925-.137.925.472 0 .43-.487.182-.85.182m1.076-.238c0-1.244-.695-.08-1.081-1.136-.282.894-1.12.142-1.12 1.104 0 .367.094.577.272.696v.366c0 .096.077.174.171.174h1.318a.174.174 0 0 0 .174-.174v-.397a.814.814 0 0 0 .266-.633M60.71 36.853c.314 0 .57-.225.57-.501s-.256-.502-.57-.502c-.316 0-.571.226-.571.502s.255.501.57.501M58.03 18.447s-.267.452-.267.535c0 .164.122.298.27.298.15 0 .273-.134.273-.298 0-.009-.275-.535-.275-.535M39.779 18.447s-.267.452-.267.535c0 .164.121.298.272.298.149 0 .27-.134.27-.298 0-.009-.275-.535-.275-.535M44.341 18.447s-.267.452-.267.535c0 .164.123.298.272.298.15 0 .27-.134.27-.298 0-.009-.275-.535-.275-.535M48.904 18.447s-.267.452-.267.535c0 .164.122.298.27.298.151 0 .273-.134.273-.298 0-.009-.276-.535-.276-.535M53.467 18.447s-.267.452-.267.535c0 .164.122.298.27.298.15 0 .273-.134.273-.298 0-.009-.276-.535-.276-.535M39.787 24.712s.267.45.267.535c0 .164-.121.298-.27.298-.15 0-.273-.134-.273-.298 0-.009.276-.535.276-.535M39.787 30.8s.267.45.267.534c0 .165-.121.298-.27.298-.15 0-.273-.133-.273-.298 0-.009.276-.534.276-.534M40.517 35.618s.268.452.268.533c0 .164-.122.3-.27.3-.15 0-.273-.136-.273-.3 0-.007.275-.533.275-.533M44.345 38.18s.267.45.267.535c0 .164-.121.297-.27.297-.15 0-.272-.133-.272-.297 0-.01.275-.535.275-.535M58.262 24.712s-.265.45-.265.535c0 .164.12.298.268.298.151 0 .272-.134.272-.298 0-.009-.275-.535-.275-.535M58.262 30.8s-.265.45-.265.534c0 .165.12.298.268.298.151 0 .272-.133.272-.298 0-.009-.275-.534-.275-.534M57.532 35.618s-.267.452-.267.533c0 .164.121.3.272.3.149 0 .27-.136.27-.3 0-.007-.275-.533-.275-.533M53.704 38.18s-.267.45-.267.535c0 .164.122.297.272.297.149 0 .27-.133.27-.297 0-.01-.275-.535-.275-.535M49.046 40.895s-.267.45-.267.532c0 .165.121.3.272.3.149 0 .27-.135.27-.3 0-.009-.275-.532-.275-.532M56.47 31.814c.059.087.201.117.383.053l.174-.49c.014-.035-.202-.229-.327-.198-.488.115-1.004.175-1.291.635 0 .318.23.606.46.752.17-.058.2.116.315.201.028.147-.059.262-.2.262-.346-.347-.948.116-1.207-.32.114-.433.346-.923-.028-1.329.028-.086.17-.173.086-.26-.144-.404-.575-.086-.833-.086-.43-.06-.775.173-1.033.519.028.144.084.29.229.435.114-.03.173 0 .2.116l-.287.172c.087.088.087.202.116.319-.201.087-.402-.202-.489-.347 0-.23.03-.637-.287-.695-.056 0-.249.085-.249.085-.069.088-.118.268-.118.478 0 .205.113.518.113.518s.886.657 1.086 1.06c-.257.519-.257 1.243-.86 1.53-.173.117-.173.29-.173.464l.145.116c.373-.201 1.09-.26 1.033-.895.145-.26.285-.551.544-.754a.599.599 0 0 1 .66.319c-.084.435-.372.722-.774.867-.058.06-.028.145-.028.233.115.201.43.114.604.087.486-.32.689-.899 1.118-1.072.058.29-.574.378-.173.665.26-.058.605.029.777-.317-.203-.49.688-.724.143-1.158 0-.432.458-.605.428-1.07-.17-.46-.716-.46-.858-.895.17-.117.43-.086.602 0M35.502 37.076c.315 0 .57-.225.57-.501 0-.279-.255-.503-.57-.503-.315 0-.57.224-.57.503 0 .276.255.5.57.5M5.907 54.365a.55.55 0 0 0 .56-.538.55.55 0 0 0-.56-.538.55.55 0 0 0-.56.538c0 .296.25.538.56.538M24.742 58.561h-.036l-.037-.044h-.005v.03c0 .01.005.01.014.011v.003h-.059v-.003c.012 0 .016 0 .016-.012v-.066c0-.014-.007-.014-.016-.016v-.001h.058c.012 0 .049 0 .049.025 0 .017-.017.023-.027.026l.037.043a.015.015 0 0 0 .006.001v.003zM24.821 58.491c-.003-.011-.014-.028-.035-.028-.01 0-.02.006-.02.014s.006.012.019.02l.027.008a.036.036 0 0 1 .019.03c0 .012-.01.03-.045.03-.015 0-.024-.004-.029-.004-.005 0-.006.004-.006.004h-.005v-.037h.005c.004.014.012.033.037.033.02 0 .022-.015.022-.019 0-.007-.008-.011-.02-.015l-.012-.007c-.03-.012-.03-.024-.03-.032 0-.01.004-.03.038-.03.016 0 .024.006.03.006.003 0 .005-.001.005-.006h.006v.033h-.006zM25.01 58.464a.027.027 0 0 0-.012.012l-.034.09h-.006l-.03-.073-.034.072h-.005l-.04-.09c0-.007-.003-.008-.011-.01v-.004h.054v.003c-.008.003-.013.003-.013.009l.001.005.022.054.022-.047-.006-.014c-.002-.003-.005-.004-.015-.007v-.003h.058v.003c-.008.003-.012.003-.012.007v.008l.02.052.02-.052c0-.001.003-.003.003-.006 0-.006-.009-.006-.014-.009v-.003h.033v.003zM25.016 58.561c.018-.003.04-.01.048-.038-.003.002-.004.002-.008.002h-.007c-.013 0-.035-.005-.035-.033 0-.006.007-.032.041-.032.016 0 .042.01.042.045 0 .028-.026.056-.08.061v-.005zM25.12 58.493c.016 0 .027.002.038.008.008.005.02.012.02.027 0 .02-.02.037-.053.037-.014 0-.025-.005-.025-.014 0-.005.003-.01.011-.01.012 0 .023.014.034.014.007 0 .018-.003.018-.015 0-.009-.01-.017-.019-.02a.1.1 0 0 0-.039-.007l.018-.05h.058l-.009.016h-.05l-.002.014z" fill="#FFF" mask="url(#o9igxs50ob)"/>
        <path d="M58.953 34.034c-.11 1.217-.524 2.231-1.366 2.805l-7.938 5.048h-.045a.987.987 0 0 1-.61.217.982.982 0 0 1-.623-.226l-7.925-5.04c-.842-.573-1.257-1.587-1.367-2.804V18.29h19.874v15.744zm.593-16.31v-.012h-21.06v.013h-.003l.016 16.094c0 1.641.695 3.076 1.656 3.518l8.099 5.143a.984.984 0 0 0 1.398.075l8.225-5.218c.96-.442 1.655-1.877 1.655-3.518l.017-16.094h-.003z" fill="#FFF" mask="url(#o9igxs50ob)"/>
        <path d="m51.851 41.182.256-.123a1.2 1.2 0 0 0-.256.123M33.96 62.183l-.764-1.176-.432 1.316 1.195-.14zm2.006.998-1.986.23-.015-.13c.379-.068.49-.086.468-.256-.016-.14-.256-.497-.36-.65l-1.378.16c-.129.389-.203.61-.193.692.023.196.318.179.527.162l.016.13-1.244.142-.014-.125c.326-.08.39-.266.532-.671l1.035-2.973.171-.021 1.674 2.545c.34.517.459.681.752.636l.015.129z" fill="#FFF" mask="url(#o9igxs50ob)"/>
        <path d="M70.057 56.793c-.271.55-.696.945-1.3 1.035.03-.729.696-1.247.455-2.068-.395-.58-1.18-.76-1.904-.608-.273.181-.153.485-.243.761l-.122 1.003c-.604 0-.635-.549-.814-.974.03-.64.302-1.277.936-1.583.484-.243 1.27-.213 1.752.061.395.09.848.273.997.64.454.426.333 1.185.243 1.733zm-2.449.306c.335-.334-.09-2.253.847-1.005 0 .243.03.61-.212.791-.15.122-.392.366-.635.214zm.335.761c.028.485-.424.365-.666.548h-.725c-.152-.244-.09-.609-.09-.853.481.091 1.026.091 1.48.305zm.844 3.713c-.24.305-.03.79-.332 1.065 0 .548-.453.821-.847 1.033-3.595.792-7.13-.424-10.605-1.033-4.866-1.065-10.546-1.37-15.504-.244a72.045 72.045 0 0 0-6.828 1.613c-1.39.183-2.902.395-4.23-.03-1.088-.518-.636-1.917-.968-2.89.06-.762-.211-1.371-.242-2.1-.09-.244-.15-.55-.12-.793.451.062.906.396 1.39.518 2.538.486 4.805-.336 7.162-.76 2.267-.487 4.593-.886 6.98-1.067 2.72-.028 5.5-.181 8.1.275.845.03 1.57.244 2.385.305 1.694.212 3.265.67 4.987.79.272.09.604.09.908.153 2.719.425 5.77 1.185 8.369 0 0 1.096-.453 2.1-.605 3.165zm-15.35 2.22c.15.426.422.825.271 1.34-.3.58-.906.58-1.449.7-.273.031-.485-.06-.696-.213.03-.122-.03-.211-.12-.303.09-.396-.696-.793-.15-1.127.481-.458 1.63-1.49 2.144-.397zm.664.124c.362.09.393.485.423.788-.03.67-.392 1.25-1.027 1.493-.332.184-.847.245-1.179.122.725-.03 1.512-.304 1.814-1.036l-.03-1.367zm.786 4.047c-.061.03-.061.092-.061.12-.875.033-1.45-.485-2.114-.942l-.032-.151c.817.061 1.483.578 2.207.973zm-1.118 2.8c-.03.09-.181.09-.241.03-.906-1.157-1.33-2.374-1.904-3.652l.12-.03c.725 1.186 1.299 2.496 2.025 3.652zm-1.51-.73-.153.06c-.15-.122-.09-.457-.059-.637.182.15.332.365.212.576zm-.847-1.827c.031.305.333.425.151.7-.059-.12-.242-.395-.15-.7zm-1.933 2.466c-.574.03-1.451.364-1.995-.122.031-.244-.242-.365-.212-.607.485-.184.906.395 1.359-.033.696.033 1.42-.09 2.116.061.332.092.847-.548.906.092-.24 1.004-1.449.304-2.174.61zm-1.33-3.62.152-.245c-.243.73-.607 1.49-1 2.191-.18-.73.575-1.31.848-1.947zm.845-.58c.394-.426.757.243.906.58.455.666 1.633 1.278 1.18 2.189-.575.518-1.481.031-2.116.427-.333-.032-.906.06-1.088-.273.333-.976.634-2.07 1.118-2.923zm-.09-1.156h-.12l.18-.184c.092.062-.03.123-.06.184zm.695.059c.121-.181.27-.455.483-.455 0 .029.03.062.06.092-.18.151-.331.304-.543.363zm.424.457c.059-.06.21-.06.27 0h-.27zm.814.944c-.029.061.03.153-.06.214l-.695-.548c.333-.061.575.09.755.334zm1.21-3.744c-.364.123-.635.549-.998.638.182-.334.634-.668.998-.638zm-1.512-.395c-.061-.274.273-.061.393-.183l.937.06c-.483-.06-1.087 1.067-1.33.123zm-2.204.852c.149-.426.18-.79.453-1.126.302 0 .573 0 .815.121.06.61.816 1.432 0 1.95-.272.122-.666.393-.968.122-.392-.338-.453-.64-.3-1.067zm-.455 1.886c-.03-.12.06-.273.091-.426.151-.15.303.122.364.214a.446.446 0 0 1-.455.212zm-.06-1.398h.03v-.334h-.03v.334zm-.332-.914c-.394-.092-.606-.548-1.027-.548.362-.122.725-.09 1.148-.03.152.213-.09.397-.12.578zm-.333 2.466c.09-.397.272-.912.484-1.279-.03.395-.212.944-.484 1.279zm-.663 0c-.516-.061-1-.213-1.452-.366-.303-.304 0-.64 0-.974.422-.67 1.63-1.004 2.206-.397-.09.67-.333 1.25-.754 1.737zm.27.821v.122h-.061v-.152h.122c-.03 0-.092 0-.122.03h.06zm-.755 1.766a23.19 23.19 0 0 1-1.482 2.86c-.059.15-.301.182-.482.213 0-.426.423-.761.605-1.126.634-.822.814-1.705 1.54-2.495.182.181-.181.303-.181.548zm-2.871-.306c.726-.303 1.481-.942 2.297-.67-.574.458-1.512.64-2.297.67zm1.088-2.099c-.152-1.066.273-1.98.969-2.74.42-.09.906-.183 1.299.061-.788.214-1.785.396-1.967 1.401.03.394-.09.61.092.942.332.579 1.087.336 1.51.794 0 .15-.12.332-.27.362-.515-.303-1.15-.423-1.633-.82zm-14.173-9.77c.091-.243 0-.609.334-.669.21-.06.543-.06.572.183-.03.364-.059.728-.15 1.066-.422.029-.635-.216-.756-.58zm.091 1.024c.452.334 1.087.181 1.631.273.091.334.091.76-.15 1.034-.513-.122-1.178-.062-1.451-.547.06-.214-.09-.52-.03-.76zm-1.42-.872c.091-.548.212-1.126.725-1.523.725-.395 1.723-.301 2.388.094.21.12.363.303.484.577.15.518-.092 1.064-.455 1.37h-.3c0-.488 0-.975.18-1.37-.03-.365-.333-.396-.574-.549-.514-.15-.968.092-1.361.306-.302.365-.574.821-.392 1.338.213.336.03.79.15 1.156l-.09.123c-.362-.396-.846-.823-.754-1.522zM57.074 69.03c.721.327 2.175.645 3.222.764-.094.413-.832.025-.745.606-.937-.363-2.025-.547-2.72-1.277.061-.031.121-.123.243-.093zm-18.867.486-.423-.396c.212-.273.666-.12.998-.304.785-.245 1.692-.546 2.57-.364-.908.73-2.086.821-3.145 1.064zm32.636-13.88c-.361-.943-1.117-1.58-2.055-1.885-.967-.212-1.995-.061-2.628.67-1.089.882-.333 2.344-.303 3.53 0 .243.03.425-.211.547-4.382-.395-8.46-1.49-12.812-1.947-1.002-.172-2.004-.127-2.953-.33l-1.219-.127c-3.777.123-7.553.335-11.09 1.249-.753.242-1.602.303-2.357.576-.543-.091-.996.306-1.51.155l-.994.232a.868.868 0 0 1-.336-.02c-.482-1.248.968-2.01.514-3.226-.392-.7-1.178-1.37-2.086-1.248-1.026-.122-1.933.458-2.418 1.248-.693 1.521.184 3.104.454 4.597-.06.485.485 1.033 0 1.43-.967-.672-2.237-1.037-3.415-.7-.362.182-1.028-.062-1.207.364 1.3.7 2.961.608 4.411.547.182-.061.303-.092.453.03.123.793-.15 1.858.333 2.557.545.733 1.45.914 2.327 1.004 2.78-.09 5.258-.911 7.796-1.552.394-.029.696-.242 1.118-.242 1.36-.306 2.841-.547 4.291-.58-.634.822-.997 1.736-1.268 2.74-.364.82.634.943.936 1.4-.936.275-1.602.914-2.477 1.278-1.935-.06-3.567.67-5.381.883-.028.396.637.274.696.67-.09.274-.362.305-.574.458-.03.181 0 .212.182.242.18-.214.573-.06.755-.275.604 0 1.118-.181 1.692-.214.514-.212 1.087-.24 1.54-.607.635-.182 1.029-.608 1.664-.792.906 0 1.722-.303 2.568-.365v.184a90.64 90.64 0 0 1-2.146 3.348c-.12.212.03.426.211.485.423.123.846 0 1.178-.181.637-1.096 1.209-2.132 1.724-3.257.212-1.035.966-1.582 1.722-2.283.122-.06.303-.243.423-.06-.604.7-.997 1.37-1.449 2.13-.244.852-.305 1.946.452 2.647.364.307.908.213 1.39.244 1.178-.607 2.69.365 3.596-.79.543-.093.633.546.937.853.514.15 1.057.667 1.571.302-.03-.334-.393-.64-.575-.943-.361-.64-.815-1.155-1.147-1.735-.153-.425-.423-.699-.485-1.127.546.183 1.028.548 1.632.642.514.212 1.149.18 1.634.485.392.519.996.82 1.509 1.156.755.367 1.604.426 2.39.731.3.03.754.273.964 0-.12-.152-.271-.242-.451-.335-.093-.396.543-.184.755-.485-.074-.152-.206-.211-.352-.232-.432-.233-1.509-.313-1.794-.47-.362-.06-.696-.212-1.058-.334-1.814 0-2.81-1.644-4.26-2.253.33-.304.845-.546 1.057-1.004.273-.428.362-1.127.091-1.612-.273-.944-1.481-.824-2.175-1.34l.09-.092c1.177-.059 2.206.212 3.263.426 2.9.396 5.591 1.491 8.613 1.552 1.661 0 3.747.092 4.563-1.521.15-.943.331-1.888.483-2.83.364-1.522 1.36-2.923 1.208-4.597zM107.273 45.936h228.818v-.972H107.273zM114.6 62.647l-1.803-4.17-1.858 4.17h3.66zm.303.66h-4.277l-.51 1.18c-.165.392-.249.717-.249.971 0 .342.137.59.41.751.16.096.558.167 1.189.215v.33h-4.026v-.33c.434-.066.79-.245 1.07-.54.28-.295.625-.905 1.036-1.827l4.33-9.66h.169l4.367 9.93c.416.939.758 1.532 1.026 1.774.203.185.488.293.858.323v.33h-5.858v-.33h.242c.47 0 .8-.066.991-.197a.478.478 0 0 0 .196-.41c0-.108-.018-.22-.053-.331a9 9 0 0 0-.268-.67l-.643-1.509zM128.904 58.406v6.536c0 .637.06 1.035.178 1.192.12.158.36.256.724.299v.322h-3.401v-1.117c-.399.476-.797.822-1.198 1.04-.398.218-.845.325-1.339.325-.47 0-.887-.143-1.254-.432-.366-.29-.612-.627-.735-1.014-.126-.387-.189-1.061-.189-2.025v-3.313c0-.632-.057-1.024-.173-1.178-.117-.156-.36-.257-.728-.303v-.332h3.401v5.705c0 .596.029.979.085 1.153a.766.766 0 0 0 .267.391c.124.09.264.134.424.134.216 0 .408-.056.582-.169.238-.154.522-.467.857-.938v-4.463c0-.632-.058-1.024-.175-1.178-.115-.156-.357-.257-.727-.303v-.332h3.401zM136.013 58.174l.133 2.85h-.303c-.362-.847-.739-1.424-1.13-1.733-.388-.31-.778-.466-1.165-.466a.88.88 0 0 0-.624.247.761.761 0 0 0-.26.565c0 .161.06.317.18.465.19.245.723.662 1.598 1.255.875.592 1.45 1.096 1.727 1.508.276.415.416.878.416 1.388 0 .465-.116.921-.349 1.367-.232.446-.56.79-.981 1.026-.423.24-.89.358-1.403.358-.399 0-.931-.125-1.599-.375-.178-.065-.298-.098-.365-.098-.196 0-.36.148-.49.446h-.295l-.143-3h.304c.267.786.635 1.376 1.102 1.768.468.393.91.589 1.326.589.285 0 .52-.087.7-.263a.857.857 0 0 0 .273-.638c0-.286-.09-.534-.268-.74-.178-.21-.577-.526-1.195-.948-.911-.63-1.501-1.112-1.77-1.446-.391-.49-.587-1.027-.587-1.615 0-.644.221-1.226.664-1.747.445-.52 1.085-.78 1.924-.78.452 0 .89.109 1.312.33.161.089.293.134.394.134a.448.448 0 0 0 .258-.068c.065-.045.17-.172.312-.379h.304zM140.89 55.353v3.054h1.983v.884h-1.983v5.15c0 .483.022.795.067.932a.67.67 0 0 0 .237.34c.112.088.217.131.312.131.387 0 .752-.295 1.098-.885l.269.196c-.482 1.143-1.267 1.714-2.35 1.714-.53 0-.976-.146-1.343-.441-.366-.295-.599-.624-.7-.987-.059-.201-.09-.748-.09-1.642v-4.508h-1.089v-.314c.75-.53 1.388-1.086 1.915-1.669a10.15 10.15 0 0 0 1.378-1.955h.296zM146.856 58.406V60.3c.555-.862 1.039-1.435 1.455-1.717.417-.285.819-.426 1.206-.426.334 0 .599.103.799.308.2.206.3.497.3.87 0 .399-.099.71-.291.93a.898.898 0 0 1-.7.329c-.317 0-.59-.1-.821-.302a5.51 5.51 0 0 0-.412-.34.407.407 0 0 0-.206-.054.75.75 0 0 0-.489.197c-.247.201-.429.49-.554.865a6.043 6.043 0 0 0-.287 1.91v1.92l.01.5c0 .34.019.558.063.652.07.161.176.279.317.354.14.073.376.12.708.138v.322h-4.508v-.322c.363-.031.608-.13.737-.299.127-.17.191-.619.191-1.345v-4.616c0-.475-.024-.778-.072-.91a.709.709 0 0 0-.257-.364c-.114-.08-.314-.133-.599-.161v-.332h3.41zM155.84 64.87v-2.794c-.72.423-1.254.874-1.607 1.356-.232.321-.348.646-.348.973 0 .274.098.515.294.724.15.16.358.24.627.24.297 0 .64-.167 1.034-.499m0 .651c-1.019.9-1.93 1.35-2.74 1.35-.478 0-.873-.157-1.188-.47-.315-.311-.473-.704-.473-1.174 0-.636.274-1.21.822-1.717.548-.51 1.74-1.188 3.58-2.033v-.839c0-.631-.034-1.028-.104-1.192a.966.966 0 0 0-.389-.429 1.16 1.16 0 0 0-.642-.183c-.386 0-.705.087-.955.26-.153.108-.232.232-.232.375 0 .125.084.279.25.464.227.255.339.503.339.741a.987.987 0 0 1-.326.745c-.217.206-.501.309-.85.309-.377 0-.693-.112-.944-.34-.253-.226-.38-.49-.38-.794 0-.43.17-.838.51-1.228.338-.39.813-.689 1.42-.897a5.76 5.76 0 0 1 1.89-.313c.793 0 1.42.168 1.88.505.462.335.76.702.897 1.094.086.249.128.824.128 1.722v3.242c0 .38.014.62.042.719.03.097.076.17.136.218.059.048.126.07.204.07.156 0 .312-.109.473-.33l.268.215c-.298.44-.605.761-.925.959-.318.2-.68.3-1.084.3-.476 0-.849-.11-1.116-.334-.268-.223-.432-.562-.49-1.015M163.369 54.648v10.374c0 .59.069.966.205 1.13.137.163.405.257.803.28v.322h-4.507v-.322c.368-.011.642-.118.82-.321.119-.137.18-.5.18-1.09V56.38c0-.584-.07-.956-.207-1.12-.136-.164-.401-.258-.793-.281v-.331h3.499zM166.915 54.362c.388 0 .714.135.982.407.269.27.402.596.402.977 0 .38-.135.705-.406.973-.27.268-.596.401-.978.401-.38 0-.705-.133-.974-.401a1.334 1.334 0 0 1-.401-.973c0-.381.135-.706.401-.977.27-.272.593-.407.974-.407zm1.25 4.044v6.616c0 .59.068.965.205 1.13.138.163.406.256.804.28v.321h-4.507v-.32c.367-.014.642-.12.82-.322.12-.136.178-.5.178-1.089v-4.874c0-.59-.067-.966-.206-1.13-.136-.163-.401-.258-.792-.282v-.33h3.499zM174.32 64.87v-2.794c-.72.423-1.255.874-1.607 1.356-.233.321-.349.646-.349.973 0 .274.098.515.295.724.148.16.357.24.626.24.296 0 .641-.167 1.035-.499m0 .651c-1.02.9-1.931 1.35-2.741 1.35-.477 0-.873-.157-1.187-.47-.315-.311-.473-.704-.473-1.174 0-.636.273-1.21.821-1.717.548-.51 1.74-1.188 3.58-2.033v-.839c0-.631-.034-1.028-.103-1.192a.966.966 0 0 0-.39-.429 1.16 1.16 0 0 0-.642-.183c-.386 0-.705.087-.954.26-.154.108-.233.232-.233.375 0 .125.084.279.251.464.226.255.338.503.338.741a.987.987 0 0 1-.326.745c-.217.206-.501.309-.85.309-.377 0-.692-.112-.944-.34-.253-.226-.38-.49-.38-.794 0-.43.171-.838.51-1.228.339-.39.813-.689 1.42-.897a5.77 5.77 0 0 1 1.89-.313c.794 0 1.42.168 1.88.505.462.335.76.702.897 1.094.086.249.128.824.128 1.722v3.242c0 .38.014.62.043.719.03.097.075.17.135.218.06.048.127.07.204.07.156 0 .313-.109.474-.33l.267.215c-.298.44-.605.761-.924.959-.318.2-.68.3-1.085.3-.475 0-.848-.11-1.115-.334-.268-.223-.432-.562-.491-1.015M181.99 58.406v1.08c.428-.463.841-.801 1.233-1.012a2.63 2.63 0 0 1 1.267-.318c.542 0 .992.15 1.348.451.359.3.595.674.713 1.12.097.34.145.991.145 1.955v3.25c0 .643.058 1.045.174 1.202.116.158.358.256.728.299v.322h-4.224v-.322c.315-.043.541-.174.68-.394.095-.15.143-.517.143-1.106v-3.715c0-.684-.028-1.115-.08-1.293a.8.8 0 0 0-.274-.416.676.676 0 0 0-.424-.147c-.512 0-.988.365-1.428 1.098v4.473c0 .624.058 1.02.175 1.187.115.167.331.27.646.313v.322h-4.223v-.322c.351-.037.602-.15.75-.339.1-.132.152-.52.152-1.161v-4.714c0-.632-.058-1.024-.174-1.178-.115-.156-.358-.257-.728-.303v-.332h3.402zM200.744 54.371l.098 4.036h-.366c-.172-1.013-.596-1.827-1.272-2.442-.675-.617-1.407-.924-2.192-.924-.608 0-1.087.162-1.441.486-.356.323-.532.698-.532 1.12 0 .27.062.507.188.716.172.279.45.555.831.83.28.195.925.543 1.937 1.044 1.415.696 2.371 1.354 2.865 1.973.488.619.733 1.328.733 2.125 0 1.011-.394 1.883-1.183 2.61-.789.73-1.791 1.094-3.004 1.094-.381 0-.74-.038-1.082-.116a8.247 8.247 0 0 1-1.277-.437c-.284-.118-.518-.178-.704-.178-.154 0-.318.06-.491.178-.172.12-.312.3-.42.545h-.33v-4.573h.33c.262 1.287.766 2.267 1.514 2.944.747.675 1.552 1.012 2.414 1.012.668 0 1.2-.182 1.594-.544.395-.364.595-.785.595-1.268 0-.284-.078-.562-.228-.83a2.633 2.633 0 0 0-.693-.763c-.31-.242-.856-.555-1.644-.942-1.1-.542-1.892-1.003-2.374-1.384a4.257 4.257 0 0 1-1.112-1.276 3.17 3.17 0 0 1-.387-1.554c0-.964.354-1.785 1.062-2.463.708-.68 1.602-1.019 2.679-1.019.393 0 .774.047 1.143.143.28.071.62.204 1.022.397.401.195.683.29.844.29a.48.48 0 0 0 .365-.142c.09-.097.173-.325.25-.688h.268zM204.674 54.362c.387 0 .713.135.981.407.269.27.402.596.402.977 0 .38-.135.705-.406.973-.27.268-.596.401-.977.401s-.705-.133-.974-.401a1.334 1.334 0 0 1-.402-.973c0-.381.136-.706.402-.977.269-.272.593-.407.974-.407zm1.25 4.044v6.616c0 .59.067.965.205 1.13.137.163.403.256.804.28v.321h-4.508v-.32c.368-.014.642-.12.82-.322.12-.136.178-.5.178-1.089v-4.874c0-.59-.067-.966-.205-1.13-.137-.163-.402-.258-.793-.282v-.33h3.499zM211.283 58.71c-.345 0-.636.175-.874.522-.24.35-.358 1.07-.358 2.164 0 .887.118 1.496.353 1.827.235.329.512.495.834.495.357 0 .656-.164.893-.49.238-.328.358-.964.358-1.91 0-1.067-.134-1.794-.403-2.181a.911.911 0 0 0-.803-.427m-.527 9.276c-.607 0-1.008.05-1.205.151-.338.186-.51.434-.51.751 0 .304.176.578.528.825.352.248 1.012.371 1.982.371.827 0 1.477-.11 1.95-.33.473-.22.71-.53.71-.93a.55.55 0 0 0-.134-.375c-.16-.176-.403-.299-.727-.365-.325-.065-1.19-.098-2.594-.098m2.07-9.482h2.814v.983h-1.598c.292.292.495.557.607.794.143.321.214.657.214 1.009 0 .595-.165 1.112-.495 1.549-.33.437-.78.78-1.348 1.027-.57.247-1.073.37-1.514.37-.035 0-.393-.016-1.072-.044a.93.93 0 0 0-.672.263.848.848 0 0 0-.273.63c0 .213.081.389.245.527.165.137.43.204.8.204l1.544-.017c1.25 0 2.11.136 2.581.41.671.381 1.009.967 1.009 1.758 0 .506-.156.967-.465 1.38-.31.414-.718.718-1.224.916-.768.291-1.651.437-2.65.437-.75 0-1.436-.073-2.054-.218-.619-.147-1.062-.349-1.33-.608-.269-.258-.402-.531-.402-.818 0-.273.103-.518.306-.735.206-.218.59-.4 1.148-.55-.773-.38-1.16-.91-1.16-1.59 0-.409.157-.808.474-1.195.315-.388.814-.724 1.499-1.008-.797-.293-1.374-.677-1.732-1.152a2.685 2.685 0 0 1-.535-1.651c0-.816.333-1.524 1-2.122.666-.597 1.523-.897 2.57-.897.554 0 1.126.117 1.714.348M219.749 58.406v1.08c.427-.463.84-.801 1.232-1.012a2.63 2.63 0 0 1 1.267-.318c.542 0 .992.15 1.348.451.357.3.596.674.714 1.12.097.34.144.991.144 1.955v3.25c0 .643.058 1.045.175 1.202.115.158.357.256.727.299v.322h-4.223v-.322c.315-.043.54-.174.68-.394.094-.15.142-.517.142-1.106v-3.715c0-.684-.028-1.115-.08-1.293a.8.8 0 0 0-.274-.416.676.676 0 0 0-.423-.147c-.513 0-.989.365-1.429 1.098v4.473c0 .624.058 1.02.175 1.187.115.167.331.27.646.313v.322h-4.222v-.322c.35-.037.6-.15.75-.339.1-.132.152-.52.152-1.161v-4.714c0-.632-.059-1.024-.175-1.178-.117-.156-.357-.257-.727-.303v-.332h3.401zM230.84 64.87v-2.794c-.72.423-1.255.874-1.607 1.356-.233.321-.349.646-.349.973 0 .274.098.515.295.724.148.16.357.24.626.24.296 0 .641-.167 1.034-.499m0 .651c-1.018.9-1.93 1.35-2.74 1.35-.477 0-.873-.157-1.188-.47-.314-.311-.472-.704-.472-1.174 0-.636.273-1.21.82-1.717.55-.51 1.741-1.188 3.58-2.033v-.839c0-.631-.033-1.028-.102-1.192a.966.966 0 0 0-.39-.429 1.16 1.16 0 0 0-.642-.183c-.386 0-.705.087-.954.26-.154.108-.233.232-.233.375 0 .125.084.279.251.464.226.255.338.503.338.741a.987.987 0 0 1-.326.745c-.217.206-.501.309-.85.309-.377 0-.692-.112-.944-.34-.253-.226-.38-.49-.38-.794 0-.43.171-.838.51-1.228.339-.39.813-.689 1.42-.897a5.77 5.77 0 0 1 1.89-.313c.794 0 1.42.168 1.88.505.462.335.76.702.897 1.094.086.249.128.824.128 1.722v3.242c0 .38.014.62.043.719.03.097.075.17.135.218.06.048.126.07.204.07.156 0 .313-.109.474-.33l.267.215c-.298.44-.605.761-.925.959-.317.2-.68.3-1.084.3-.476 0-.848-.11-1.115-.334-.268-.223-.432-.562-.492-1.015M238.369 54.648v10.374c0 .59.069.966.205 1.13.137.163.405.257.803.28v.322h-4.507v-.322c.368-.011.643-.118.82-.321.119-.137.18-.5.18-1.09V56.38c0-.584-.07-.956-.207-1.12-.136-.164-.401-.258-.793-.281v-.331h3.499zM245.183 58.174l.133 2.85h-.304c-.361-.847-.738-1.424-1.128-1.733-.39-.31-.779-.466-1.166-.466a.88.88 0 0 0-.625.247.761.761 0 0 0-.259.565c0 .161.06.317.179.465.191.245.723.662 1.598 1.255.876.592 1.451 1.096 1.728 1.508.276.415.415.878.415 1.388 0 .465-.115.921-.348 1.367-.233.446-.56.79-.981 1.026-.423.24-.891.358-1.404.358-.398 0-.93-.125-1.598-.375-.179-.065-.299-.098-.365-.098-.197 0-.36.148-.491.446h-.295l-.142-3h.303c.267.786.635 1.376 1.103 1.768.468.393.909.589 1.325.589.286 0 .52-.087.7-.263a.857.857 0 0 0 .274-.638c0-.286-.09-.534-.268-.74-.179-.21-.577-.526-1.196-.948-.91-.63-1.5-1.112-1.769-1.446-.392-.49-.587-1.027-.587-1.615 0-.644.22-1.226.664-1.747.444-.52 1.085-.78 1.924-.78.452 0 .89.109 1.312.33.161.089.292.134.393.134a.448.448 0 0 0 .258-.068c.065-.045.17-.172.313-.379h.304zM255.285 55.335v9.446c0 .501.025.806.072.919.047.114.128.2.24.26.16.09.393.133.697.133.994 0 1.752-.34 2.276-1.019.715-.915 1.072-2.337 1.072-4.265 0-1.554-.245-2.796-.733-3.724-.387-.727-.883-1.22-1.49-1.482-.43-.184-1.14-.274-2.134-.268zm-4.616 11.418v-.329h.402c.351 0 .62-.056.808-.166a.997.997 0 0 0 .414-.451c.055-.126.083-.5.083-1.124v-7.964c0-.619-.035-1.006-.1-1.16-.064-.154-.198-.291-.397-.407-.199-.115-.469-.173-.808-.173h-.402v-.332h5.419c1.446 0 2.61.197 3.492.59 1.078.482 1.894 1.212 2.45 2.187.557.976.835 2.08.835 3.313 0 .851-.137 1.635-.412 2.351-.273.719-.627 1.31-1.061 1.777a5.203 5.203 0 0 1-1.504 1.125c-.569.283-1.265.502-2.085.657-.364.07-.936.106-1.715.106h-5.419zM265.983 54.362c.387 0 .713.135.981.407.27.27.403.596.403.977 0 .38-.136.705-.407.973-.27.268-.596.401-.977.401s-.705-.133-.974-.401a1.334 1.334 0 0 1-.402-.973c0-.381.136-.706.402-.977.269-.272.593-.407.974-.407zm1.25 4.044v6.616c0 .59.067.965.205 1.13.137.163.403.256.804.28v.321h-4.508v-.32c.368-.014.642-.12.82-.322.12-.136.179-.5.179-1.089v-4.874c0-.59-.068-.966-.206-1.13-.137-.163-.402-.258-.793-.282v-.33h3.5zM272.244 58.406V60.3c.555-.862 1.039-1.435 1.455-1.717.417-.285.819-.426 1.206-.426.334 0 .599.103.799.308.198.206.3.497.3.87 0 .399-.099.71-.291.93a.898.898 0 0 1-.7.329c-.317 0-.59-.1-.822-.302a5.51 5.51 0 0 0-.411-.34.406.406 0 0 0-.205-.054.75.75 0 0 0-.49.197c-.247.201-.429.49-.554.865a6.043 6.043 0 0 0-.287 1.91v1.92l.01.5c0 .34.019.558.063.652.07.161.176.279.317.354.14.073.376.12.708.138v.322h-4.508v-.322c.363-.031.608-.13.737-.299.127-.17.191-.619.191-1.345v-4.616c0-.475-.024-.778-.072-.91a.709.709 0 0 0-.257-.364c-.114-.08-.314-.133-.6-.161v-.332h3.411zM281.165 61.683c0-.959-.05-1.616-.156-1.973-.104-.358-.267-.628-.487-.813-.125-.108-.292-.16-.5-.16-.309 0-.562.152-.76.454-.35.53-.526 1.256-.526 2.18v.312h2.43zm2.196.598h-4.58c.053 1.107.348 1.982.883 2.625.412.495.907.74 1.484.74.356 0 .68-.1.973-.298.291-.2.604-.558.936-1.077l.304.198c-.453.922-.953 1.576-1.5 1.96-.548.382-1.18.575-1.901.575-1.238 0-2.175-.477-2.812-1.429-.512-.767-.768-1.72-.768-2.858 0-1.39.376-2.5 1.128-3.324.754-.824 1.636-1.237 2.648-1.237.845 0 1.58.348 2.201 1.04.622.694.956 1.722 1.004 3.085zM290.943 64.602l.277.214c-.393.739-.882 1.288-1.469 1.647a3.5 3.5 0 0 1-1.87.541c-1.113 0-2.002-.419-2.668-1.26-.667-.838-1.002-1.847-1.002-3.027 0-1.135.304-2.134.911-2.998.732-1.042 1.743-1.562 3.027-1.562.864 0 1.55.217 2.057.652.51.434.765.919.765 1.454 0 .339-.103.61-.309.813-.206.203-.474.303-.808.303a1.17 1.17 0 0 1-.871-.348c-.228-.231-.37-.646-.424-1.24-.036-.376-.122-.637-.259-.786a.631.631 0 0 0-.482-.224c-.285 0-.53.153-.73.456-.311.46-.466 1.16-.466 2.107 0 .785.125 1.536.375 2.255.25.716.593 1.25 1.027 1.601.328.257.713.384 1.16.384.292 0 .57-.068.831-.204.262-.138.572-.397.928-.778M295.285 55.353v3.054h1.983v.884h-1.983v5.15c0 .483.023.795.067.932a.67.67 0 0 0 .237.34c.112.088.217.131.313.131.386 0 .752-.295 1.097-.885l.269.196c-.482 1.143-1.267 1.714-2.35 1.714-.53 0-.976-.146-1.343-.441-.365-.295-.599-.624-.7-.987-.059-.201-.09-.748-.09-1.642v-4.508h-1.089v-.314c.75-.53 1.388-1.086 1.915-1.669a10.15 10.15 0 0 0 1.379-1.955h.295zM301.76 58.79c-.304 0-.563.114-.78.344-.22.23-.361.681-.43 1.356-.069.676-.102 1.616-.102 2.818 0 .636.041 1.232.125 1.785.065.422.206.744.419.964.214.22.458.33.732.33.27 0 .492-.073.67-.223.232-.201.386-.485.463-.848.12-.565.18-1.707.18-3.428 0-1.012-.056-1.707-.17-2.084-.113-.379-.28-.654-.5-.826-.154-.125-.356-.188-.607-.188m-.036-.635a3.88 3.88 0 0 1 2.027.563c.625.376 1.1.91 1.423 1.599a5.27 5.27 0 0 1 .486 2.267c0 1.185-.298 2.176-.9 2.973-.727.964-1.73 1.446-3.01 1.446-1.254 0-2.221-.44-2.9-1.32-.679-.881-1.018-1.903-1.018-3.063 0-1.197.346-2.24 1.04-3.13.693-.89 1.645-1.335 2.852-1.335M310.119 58.406V60.3c.554-.862 1.038-1.435 1.455-1.717.416-.285.818-.426 1.205-.426.334 0 .6.103.799.308.2.206.3.497.3.87 0 .399-.098.71-.29.93a.898.898 0 0 1-.7.329c-.318 0-.59-.1-.822-.302a5.51 5.51 0 0 0-.412-.34.407.407 0 0 0-.206-.054.75.75 0 0 0-.489.197c-.246.201-.429.49-.554.865a6.043 6.043 0 0 0-.286 1.91v1.92l.009.5c0 .34.02.558.063.652.07.161.176.279.317.354.14.073.375.12.708.138v.322h-4.508v-.322c.363-.031.609-.13.737-.299.127-.17.192-.619.192-1.345v-4.616c0-.475-.025-.778-.073-.91a.709.709 0 0 0-.257-.364c-.114-.08-.313-.133-.599-.161v-.332h3.41zM319.103 64.87v-2.794c-.72.423-1.254.874-1.607 1.356-.232.321-.348.646-.348.973 0 .274.097.515.294.724.149.16.358.24.627.24.295 0 .64-.167 1.034-.499m0 .651c-1.019.9-1.931 1.35-2.741 1.35-.477 0-.872-.157-1.187-.47-.315-.311-.473-.704-.473-1.174 0-.636.273-1.21.821-1.717.549-.51 1.74-1.188 3.58-2.033v-.839c0-.631-.034-1.028-.103-1.192a.966.966 0 0 0-.39-.429 1.16 1.16 0 0 0-.641-.183c-.387 0-.705.087-.955.26-.156.108-.232.232-.232.375 0 .125.083.279.25.464.227.255.339.503.339.741a.987.987 0 0 1-.326.745c-.217.206-.502.309-.851.309-.376 0-.692-.112-.944-.34-.252-.226-.379-.49-.379-.794 0-.43.17-.838.51-1.228.338-.39.813-.689 1.418-.897a5.78 5.78 0 0 1 1.892-.313c.793 0 1.42.168 1.88.505.462.335.76.702.897 1.094.085.249.127.824.127 1.722v3.242c0 .38.014.62.043.719.03.097.075.17.136.218.059.048.126.07.203.07.156 0 .313-.109.474-.33l.267.215c-.297.44-.604.761-.924.959-.318.2-.68.3-1.084.3-.476 0-.849-.11-1.116-.334-.268-.223-.432-.562-.491-1.015M326.676 55.353v3.054h1.983v.884h-1.983v5.15c0 .483.022.795.067.932a.67.67 0 0 0 .236.34c.113.088.218.131.313.131.386 0 .752-.295 1.098-.885l.269.196c-.482 1.143-1.267 1.714-2.35 1.714-.53 0-.976-.146-1.343-.441-.366-.295-.6-.624-.7-.987-.06-.201-.09-.748-.09-1.642v-4.508h-1.089v-.314c.75-.53 1.388-1.086 1.915-1.669a10.15 10.15 0 0 0 1.378-1.955h.296zM334.052 61.683c0-.959-.05-1.616-.155-1.973-.104-.358-.267-.628-.488-.813-.125-.108-.292-.16-.499-.16-.31 0-.562.152-.76.454-.35.53-.527 1.256-.527 2.18v.312h2.43zm2.196.598h-4.58c.053 1.107.349 1.982.884 2.625.411.495.906.74 1.483.74.357 0 .68-.1.973-.298.292-.2.604-.558.937-1.077l.303.198c-.452.922-.952 1.576-1.5 1.96-.548.382-1.18.575-1.901.575-1.238 0-2.175-.477-2.811-1.429-.513-.767-.769-1.72-.769-2.858 0-1.39.376-2.5 1.128-3.324.754-.824 1.636-1.237 2.649-1.237.844 0 1.579.348 2.2 1.04.622.694.956 1.722 1.004 3.085zM115.213 31.411l-1.952-4.498-2.016 4.498h3.968zm.31.713h-4.597l-.574 1.28c-.18.427-.27.779-.27 1.057 0 .366.148.639.445.813.173.102.602.181 1.285.232v.357h-4.362v-.357a1.958 1.958 0 0 0 1.162-.586c.302-.32.676-.98 1.122-1.981l4.69-10.467h.185l4.728 10.758c.452 1.02.823 1.663 1.114 1.928.219.198.526.317.927.348v.357h-6.343v-.357h.26c.51 0 .868-.072 1.074-.214a.512.512 0 0 0 .213-.444c0-.117-.02-.236-.057-.36-.014-.058-.111-.3-.292-.726l-.71-1.638zM130.41 26.816V33.9c0 .696.065 1.129.193 1.303.13.171.39.281.783.327v.333h-3.69v-1.21c-.43.516-.863.893-1.296 1.13a2.969 2.969 0 0 1-1.45.353 2.13 2.13 0 0 1-1.36-.47c-.396-.312-.661-.677-.796-1.098-.136-.42-.205-1.152-.205-2.197V28.78c0-.683-.062-1.109-.187-1.278-.125-.167-.39-.276-.788-.33v-.356h3.69v6.181c0 .646.03 1.062.09 1.248a.83.83 0 0 0 .292.426.758.758 0 0 0 .457.145c.232 0 .44-.061.627-.184.259-.169.568-.506.925-1.015V28.78c0-.683-.06-1.109-.187-1.278-.126-.167-.387-.276-.788-.33v-.356h3.69zM137.82 26.578l.143 3.084h-.334c-.391-.916-.8-1.543-1.22-1.878-.423-.334-.844-.504-1.262-.504a.946.946 0 0 0-.677.267.816.816 0 0 0-.28.613c0 .174.064.341.193.502.207.265.785.718 1.733 1.36.95.64 1.573 1.185 1.874 1.634.3.447.45.948.45 1.503 0 .503-.126.996-.379 1.48a2.64 2.64 0 0 1-1.063 1.112 3.054 3.054 0 0 1-1.518.387c-.432 0-1.01-.137-1.731-.407-.194-.07-.326-.106-.396-.106-.212 0-.39.162-.532.489h-.321l-.155-3.25h.333c.29.849.688 1.486 1.192 1.91.506.423.984.637 1.435.637.309 0 .56-.096.756-.286a.923.923 0 0 0 .296-.69c0-.31-.098-.577-.29-.802-.196-.227-.628-.57-1.297-1.027-.988-.682-1.628-1.205-1.917-1.566-.426-.528-.64-1.111-.64-1.748 0-.697.242-1.327.722-1.891.48-.564 1.176-.847 2.086-.847.49 0 .964.122 1.421.365.173.097.317.147.426.147a.5.5 0 0 0 .281-.073c.07-.048.184-.186.34-.415h.332zM142.804 23.507v3.31h2.143v.952h-2.143v5.596c0 .524.025.861.073 1.014.047.151.133.273.255.368.122.093.235.14.338.14.417 0 .814-.317 1.187-.951l.29.21c-.524 1.233-1.371 1.848-2.544 1.848-.574 0-1.059-.16-1.457-.479-.396-.32-.65-.676-.76-1.072-.064-.219-.097-.813-.097-1.782V27.77h-1.177v-.339a12.542 12.542 0 0 0 2.076-1.807 10.953 10.953 0 0 0 1.496-2.116h.32zM148.973 26.816l.003 2.053c.599-.93 1.123-1.551 1.574-1.857.45-.305.885-.458 1.303-.458.357 0 .644.112.858.335.214.223.32.537.32.944 0 .431-.105.768-.312 1.006a.975.975 0 0 1-.758.358c-.341 0-.635-.11-.885-.333a5.081 5.081 0 0 0-.443-.37.418.418 0 0 0-.22-.059.8.8 0 0 0-.527.213c-.264.22-.464.531-.599.938a6.661 6.661 0 0 0-.306 2.071l.003 2.079.002.545c0 .37.02.608.065.711.08.177.193.306.344.386.151.082.407.132.768.152v.333h-4.904v-.333c.394-.033.663-.14.803-.327.14-.185.208-.676.208-1.47v-5c0-.516-.025-.847-.077-.989a.774.774 0 0 0-.282-.396c-.125-.083-.342-.142-.652-.175v-.357h3.714zM158.396 33.828v-3.029c-.776.458-1.353.948-1.732 1.469-.25.348-.376.699-.376 1.052 0 .297.106.558.318.783.16.173.386.26.673.26.321 0 .693-.179 1.117-.535m0 .702c-1.1.977-2.09 1.465-2.966 1.465-.514 0-.943-.17-1.284-.508-.34-.339-.512-.763-.512-1.272 0-.689.297-1.31.888-1.862.593-.55 1.885-1.284 3.874-2.2v-.908c0-.682-.037-1.114-.11-1.292-.074-.176-.215-.33-.422-.462a1.265 1.265 0 0 0-.696-.199c-.418 0-.763.095-1.034.28-.167.117-.25.252-.25.406 0 .136.09.304.27.503.245.277.367.544.367.801 0 .317-.117.585-.353.81-.235.22-.543.331-.924.331-.405 0-.745-.122-1.02-.367-.273-.245-.412-.532-.412-.861 0-.463.185-.907.553-1.33.366-.422.88-.746 1.538-.973a6.343 6.343 0 0 1 2.05-.338c.859 0 1.537.182 2.037.547.501.364.824.76.974 1.186.09.27.134.892.134 1.866v3.51c0 .413.017.672.048.78.033.104.08.184.145.236.064.051.138.077.223.077.167 0 .336-.12.509-.363l.29.234c-.323.48-.657.827-1 1.044a2.18 2.18 0 0 1-1.176.324c-.517 0-.919-.122-1.209-.365-.29-.24-.468-.608-.532-1.1M166.265 22.745v11.237c0 .647.076 1.06.225 1.238.151.18.446.283.882.309v.334h-4.903v-.334c.398-.012.696-.13.888-.352.13-.15.193-.548.193-1.195v-9.356c0-.634-.074-1.04-.221-1.217-.148-.179-.437-.28-.86-.307v-.357h3.796z" fill="#FFF" mask="url(#o9igxs50ob)"/>
        <path d="M169.807 22.448c.42 0 .772.145 1.063.44.29.294.435.646.435 1.059 0 .412-.147.763-.44 1.053-.292.29-.646.436-1.058.436-.413 0-.766-.146-1.054-.436a1.43 1.43 0 0 1-.436-1.053c0-.413.145-.765.436-1.06a1.42 1.42 0 0 1 1.054-.44zm1.356 4.368v7.167c0 .646.075 1.059.224 1.24.15.178.444.281.882.307v.333h-4.903v-.333c.399-.014.696-.132.89-.353.13-.15.193-.548.193-1.194v-5.285c0-.638-.074-1.043-.224-1.22-.148-.177-.435-.28-.859-.305v-.357h3.797zM177.524 33.828v-3.029c-.778.458-1.354.948-1.732 1.469-.251.348-.376.699-.376 1.052 0 .297.106.558.318.783.16.173.386.26.673.26.32 0 .693-.179 1.117-.535m0 .702c-1.1.977-2.09 1.465-2.966 1.465-.514 0-.943-.17-1.284-.508-.34-.339-.513-.763-.513-1.272 0-.689.298-1.31.889-1.862.593-.55 1.883-1.284 3.874-2.2v-.908c0-.682-.037-1.114-.111-1.292-.076-.176-.215-.33-.421-.462a1.27 1.27 0 0 0-.696-.199c-.419 0-.763.095-1.034.28-.167.117-.25.252-.25.406 0 .136.089.304.27.503.245.277.367.544.367.801 0 .317-.117.585-.354.81-.236.22-.543.331-.924.331-.404 0-.745-.122-1.02-.367-.273-.245-.411-.532-.411-.861 0-.463.185-.907.553-1.33.366-.422.878-.746 1.538-.973a6.336 6.336 0 0 1 2.05-.338c.858 0 1.537.182 2.037.547.499.364.824.76.974 1.186.09.27.134.892.134 1.866v3.51c0 .413.014.672.047.78a.481.481 0 0 0 .145.236c.065.051.14.077.224.077.166 0 .334-.12.508-.363l.29.234c-.322.48-.657.827-1.002 1.044a2.169 2.169 0 0 1-1.174.324c-.516 0-.919-.122-1.208-.365-.292-.24-.468-.608-.532-1.1M185.548 26.816v1.167c.462-.498.908-.861 1.334-1.088.425-.227.883-.34 1.373-.34.586 0 1.073.161 1.46.487.385.326.643.732.773 1.215.103.368.154 1.075.154 2.12V33.9c0 .699.063 1.133.188 1.304.127.172.39.28.79.326v.333h-4.598v-.333c.35-.046.598-.187.75-.427.104-.162.157-.564.157-1.203v-4.025c0-.74-.03-1.208-.087-1.402a.865.865 0 0 0-.294-.45.735.735 0 0 0-.458-.16c-.553 0-1.066.394-1.542 1.18V33.9c0 .68.064 1.108.191 1.29.129.181.366.294.714.34v.333h-4.596v-.333c.381-.039.651-.162.811-.369.11-.141.164-.562.164-1.261v-5.12c0-.683-.062-1.109-.187-1.278-.125-.167-.387-.276-.788-.33v-.356h3.69zM209.624 22.448v4.619h-.356c-.432-1.262-1.081-2.219-1.946-2.875-.866-.653-1.811-.983-2.837-.983-.98 0-1.797.275-2.449.827-.652.552-1.113 1.32-1.384 2.304a11.362 11.362 0 0 0-.407 3.035c0 1.257.148 2.357.445 3.305.296.949.775 1.643 1.435 2.089.66.443 1.446.665 2.354.665a4.9 4.9 0 0 0 .972-.1c.33-.07.671-.167 1.018-.297v-2.733c0-.516-.034-.85-.106-1-.07-.151-.217-.288-.438-.412a1.666 1.666 0 0 0-.807-.183h-.338v-.356h6.38v.356c-.483.032-.82.098-1.009.198a.99.99 0 0 0-.44.5c-.058.12-.087.42-.087.897v2.733c-.838.373-1.71.653-2.617.84-.906.19-1.846.284-2.82.284-1.245 0-2.278-.17-3.1-.507a7.696 7.696 0 0 1-2.177-1.334 6.248 6.248 0 0 1-1.475-1.858c-.453-.889-.678-1.883-.678-2.984 0-1.97.694-3.634 2.08-4.993 1.387-1.358 3.132-2.037 5.235-2.037.65 0 1.238.05 1.759.154.286.052.744.197 1.38.437.635.241 1.01.361 1.128.361.18 0 .349-.067.503-.198.154-.134.295-.384.426-.754h.356zM215.755 27.245c-.33 0-.613.123-.847.37-.236.25-.392.74-.466 1.471-.074.73-.11 1.748-.11 3.05 0 .689.044 1.335.134 1.932.071.458.224.807.455 1.044.232.24.497.359.795.359.29 0 .532-.08.726-.243.252-.219.42-.523.505-.917.128-.612.192-1.85.192-3.713 0-1.094-.06-1.848-.184-2.258-.122-.407-.303-.705-.542-.891-.167-.137-.388-.204-.658-.204m-.044-.69c.785 0 1.518.203 2.194.61.675.405 1.19.982 1.541 1.73.35.747.528 1.567.528 2.455 0 1.283-.327 2.357-.977 3.219-.786 1.044-1.872 1.568-3.259 1.568-1.357 0-2.404-.477-3.139-1.431-.734-.954-1.101-2.06-1.101-3.318 0-1.294.376-2.424 1.125-3.388.75-.962 1.78-1.446 3.088-1.446M224.842 36.137l-3.055-7.017c-.368-.846-.655-1.381-.861-1.607-.148-.17-.368-.282-.66-.34v-.356h4.814v.356c-.304 0-.509.055-.62.164a.663.663 0 0 0-.231.505c0 .238.14.688.426 1.345l1.49 3.398 1.188-2.933c.342-.838.512-1.432.512-1.78 0-.201-.072-.364-.219-.49-.144-.126-.4-.195-.767-.209v-.356h2.95v.356a1.197 1.197 0 0 0-.694.32c-.183.174-.453.686-.813 1.538l-3.003 7.106h-.457zM235.343 30.375c0-1.036-.056-1.749-.17-2.136-.11-.385-.287-.68-.523-.88-.135-.115-.315-.173-.539-.173-.334 0-.607.164-.818.492-.38.574-.569 1.36-.569 2.358v.34h2.619zm2.381.643h-4.964c.059 1.199.377 2.145.957 2.84.447.535.98.802 1.609.802.385 0 .736-.107 1.051-.323.317-.215.657-.604 1.017-1.165l.33.214c-.492 1.003-1.033 1.71-1.628 2.126-.592.416-1.28.625-2.061.625-1.343 0-2.358-.516-3.05-1.547-.555-.833-.832-1.864-.832-3.093 0-1.51.409-2.71 1.225-3.604.816-.893 1.772-1.34 2.87-1.34.917 0 1.711.376 2.387 1.126.674.751 1.037 1.864 1.09 3.34zM242.016 26.816l.003 2.053c.6-.93 1.123-1.551 1.575-1.857.45-.305.884-.458 1.303-.458.359 0 .644.112.858.335.214.223.32.537.32.944 0 .431-.105.768-.314 1.006a.968.968 0 0 1-.756.358c-.341 0-.635-.11-.886-.333a5.081 5.081 0 0 0-.442-.37.418.418 0 0 0-.22-.059.809.809 0 0 0-.53.213c-.262.22-.461.531-.596.938a6.661 6.661 0 0 0-.306 2.071l.003 2.079.002.545c0 .37.02.608.065.711a.77.77 0 0 0 .344.386c.151.082.407.132.767.152v.333h-4.904v-.333c.397-.033.664-.14.803-.327.139-.185.21-.676.21-1.47v-5c0-.516-.026-.847-.078-.989a.774.774 0 0 0-.283-.396c-.124-.083-.34-.142-.652-.175v-.357h3.714zM250.154 26.816v1.167c.462-.498.908-.861 1.334-1.088.426-.227.883-.34 1.373-.34.586 0 1.073.161 1.46.487.385.326.643.732.773 1.215.103.368.155 1.075.155 2.12V33.9c0 .699.062 1.133.187 1.304.127.172.39.28.79.326v.333h-4.598v-.333c.35-.046.598-.187.75-.427.104-.162.157-.564.157-1.203v-4.025c0-.74-.03-1.208-.086-1.402a.865.865 0 0 0-.295-.45.735.735 0 0 0-.457-.16c-.554 0-1.067.394-1.543 1.18V33.9c0 .68.064 1.108.191 1.29.129.181.366.294.714.34v.333h-4.596v-.333c.381-.039.651-.162.811-.369.11-.141.164-.562.164-1.261v-5.12c0-.683-.062-1.109-.187-1.278-.125-.167-.387-.276-.788-.33v-.356h3.69zM260.628 26.816v1.194c.496-.54.958-.918 1.38-1.133a3.02 3.02 0 0 1 1.39-.323c.58 0 1.068.135 1.461.405.394.27.697.682.91 1.234.517-.578 1.012-.996 1.488-1.253.474-.257.97-.386 1.488-.386.626 0 1.123.145 1.495.431.371.288.63.65.776 1.093.144.44.219 1.147.219 2.115V33.9c0 .699.062 1.13.187 1.299.126.17.39.278.788.331v.333h-4.677v-.333c.368-.033.638-.175.813-.427.115-.175.173-.576.173-1.203v-3.894c0-.807-.032-1.321-.096-1.541-.065-.22-.165-.383-.305-.49a.787.787 0 0 0-.49-.16c-.276 0-.558.102-.842.305-.283.203-.57.509-.86.915V33.9c0 .652.053 1.064.162 1.232.148.24.431.37.849.398v.333h-4.679v-.333c.25-.012.448-.076.592-.19a.803.803 0 0 0 .288-.407c.047-.159.073-.503.073-1.033v-3.888c0-.82-.032-1.332-.096-1.538a.952.952 0 0 0-.325-.483.788.788 0 0 0-.488-.175c-.259 0-.495.067-.707.202-.304.2-.627.537-.967 1.017V33.9c0 .639.062 1.062.187 1.265.126.205.39.326.788.365v.333h-4.666v-.333c.381-.039.651-.162.811-.369.11-.141.164-.562.164-1.261v-5.12c0-.683-.062-1.109-.187-1.278-.126-.167-.387-.276-.788-.33v-.356h3.69zM278.065 30.375c0-1.036-.056-1.749-.17-2.136-.11-.385-.287-.68-.523-.88-.134-.115-.315-.173-.539-.173-.334 0-.607.164-.818.492-.38.574-.569 1.36-.569 2.358v.34h2.619zm2.381.643h-4.964c.06 1.199.377 2.145.957 2.84.447.535.98.802 1.609.802.385 0 .736-.107 1.051-.323.317-.215.657-.604 1.017-1.165l.33.214c-.492 1.003-1.033 1.71-1.627 2.126-.593.416-1.28.625-2.062.625-1.343 0-2.358-.516-3.049-1.547-.556-.833-.832-1.864-.832-3.093 0-1.51.408-2.71 1.224-3.604.816-.893 1.772-1.34 2.87-1.34.917 0 1.711.376 2.387 1.126.675.751 1.037 1.864 1.09 3.34zM284.68 26.816v1.167c.462-.498.907-.861 1.333-1.088.425-.227.883-.34 1.373-.34.586 0 1.073.161 1.46.487.386.326.643.732.773 1.215.103.368.155 1.075.155 2.12V33.9c0 .699.062 1.133.187 1.304.128.172.39.28.789.326v.333h-4.597v-.333c.35-.046.599-.187.75-.427.104-.162.157-.564.157-1.203v-4.025c0-.74-.03-1.208-.086-1.402a.865.865 0 0 0-.295-.45.735.735 0 0 0-.457-.16c-.554 0-1.067.394-1.543 1.18V33.9c0 .68.064 1.108.192 1.29.128.181.365.294.713.34v.333h-4.595v-.333c.38-.039.65-.162.81-.369.11-.141.165-.562.165-1.261v-5.12c0-.683-.063-1.109-.188-1.278-.125-.167-.387-.276-.787-.33v-.356h3.69zM294.994 23.507v3.31h2.143v.952h-2.143v5.596c0 .524.025.861.073 1.014.048.151.133.273.255.368.122.093.235.14.338.14.418 0 .813-.317 1.187-.951l.29.21c-.522 1.233-1.37 1.848-2.544 1.848-.574 0-1.059-.16-1.456-.479-.397-.32-.65-.676-.76-1.072-.066-.219-.098-.813-.098-1.782V27.77h-1.177v-.339a12.542 12.542 0 0 0 2.077-1.807 10.953 10.953 0 0 0 1.495-2.116h.32z" fill="#FFF" mask="url(#o9igxs50ob)"/>
    </g>
</svg>
